<svg xmlns="http://www.w3.org/2000/svg" viewBox="0 0 90 90">
    <g transform="translate(-14, -215)">
        <path d="M82.2213 278.986c-1.38898,0.486614 -2.84646,0.88937 -4.36063,1.1811 -1.51417,0.305906 -2.70827,0.458268 -3.58346,0.458268 -2.27835,0 -4.00039,-0.666142 -5.16614,-1.98661 -1.16693,-1.30512 -1.97244,-3.66614 -2.44488,-7.05472 -0.694488,1.16693 -1.55551,2.3752 -2.58307,3.59646 -1.01457,1.23661 -2.06929,2.23701 -3.19488,3 -1.26378,0.88937 -2.55591,1.58386 -3.86102,2.0563 -1.30512,0.472441 -2.8748,0.708661 -4.72205,0.708661 -2.25,0 -4.41732,-0.500787 -6.48661,-1.5 -2.06929,-1.01457 -3.91654,-2.44488 -5.51339,-4.32047 -1.59803,-1.87441 -2.86181,-4.12441 -3.77835,-6.75 -0.930709,-2.63858 -1.38898,-5.54173 -1.38898,-8.70827 0,-2.90197 0.486614,-5.66693 1.45866,-8.26417 0.98622,-2.61024 2.34685,-4.90276 4.11142,-6.87402 1.68071,-1.87559 3.68031,-3.33425 6,-4.40315 2.31969,-1.05591 4.73622,-1.58386 7.22244,-1.58386 3.23622,0 5.97165,0.778346 8.22165,2.34803 2.25,1.55551 3.91654,3.73583 4.97244,6.52795l1.01339 -7.77874 7.56969 0c-0.193701,1.9311 -0.61063,4.80591 -1.24961,8.62559 -0.624803,3.83268 -1.3748,8.01378 -2.20866,12.5421 0.0838583,3.98504 0.527953,7.31929 1.36181,9.98504 0.832677,2.66693 1.88858,4.38898 3.1937,5.15315 0.402756,0.23622 1.1811,0.375591 2.31969,0.402756 1.13858,0.0283465 2.16614,0.0413386 3.09685,0.0413386l0 2.59724zm-16.3193 -20.4992c-0.193701,-1.98661 -0.499606,-3.98622 -0.943701,-6.02835 -0.431102,-2.02795 -1.08425,-3.83268 -1.94528,-5.40236 -0.84685,-1.61102 -1.92992,-2.90315 -3.27756,-3.88937 -1.34764,-1.00039 -3,-1.48583 -4.98661,-1.48583 -3.1937,0 -5.84646,1.63937 -7.95827,4.91693 -2.09646,3.29173 -3.15236,7.80472 -3.15236,13.5555 0,2.19449 0.23622,4.27795 0.694488,6.25039 0.458268,1.95827 1.11142,3.66614 1.95827,5.09646 0.88937,1.52835 2.06929,2.75079 3.51378,3.68031 1.45866,0.944882 3.18071,1.40315 5.19449,1.40315 3.30591,0 5.8748,-1.47165 7.72205,-4.44449 1.84724,-2.97165 2.90315,-7.52717 3.18071,-13.6524z"/>
    </g>
</svg>