<svg xmlns="http://www.w3.org/2000/svg" viewBox="0 0 90 90">
    <g transform="translate(-87, -213)">
        <path d="M145.419 247.375c1.70787,1.54252 3,3.41693 3.88937,5.59724 0.875197,2.18031 1.31929,4.58386 1.31929,7.22244 0,5.77795 -1.80591,10.6394 -5.43071,14.6114 -3.6248,3.95787 -8.22283,5.93031 -13.8201,5.93031 -2.36102,0 -4.34646,-0.277559 -5.95748,-0.84685 -1.61102,-0.569291 -2.88898,-1.19409 -3.84803,-1.87559l-0.318898 0 0 19.8201 -7.61102 0 0 -58.9169c0,-4.07008 0.304724,-7.3063 0.916535,-9.69449 0.61063,-2.38937 2.05512,-4.77756 4.33346,-7.19528 1.48583,-1.59685 3.37441,-2.8878 5.65276,-3.87402 2.27717,-0.973228 4.84724,-1.45866 7.6937,-1.45866 2.11181,0 4.12559,0.263386 6.01417,0.777165 1.90276,0.51378 3.59764,1.32047 5.09764,2.43071 1.48583,1.09724 2.65276,2.45906 3.49961,4.09724 0.833858,1.63937 1.25079,3.63898 1.25079,6 0,2.16732 -0.402756,4.05591 -1.22244,5.65276 -0.805512,1.59803 -1.79173,2.88898 -2.95866,3.8752 -1.13858,1.00039 -2.43071,1.79173 -3.8752,2.38937 -1.43031,0.596457 -2.73543,0.972047 -3.90236,1.09724l0.166535 0.374409c1.24961,0.0838583 2.73661,0.458268 4.45866,1.11142 1.72205,0.667323 3.26339,1.6252 4.65236,2.8748zm-3.29173 12.9862c0,-1.90276 -0.166535,-3.81969 -0.472441,-5.74961 -0.304724,-1.91693 -0.84685,-3.51378 -1.61102,-4.79173 -0.805512,-1.33346 -1.91693,-2.3752 -3.30591,-3.13937 -1.40197,-0.762992 -3.1937,-1.13858 -5.40236,-1.13858l-3.81969 0 0 -3.86102 2.76378 0c1.19528,0 2.43071,-0.207874 3.72283,-0.638976 1.29213,-0.416929 2.40236,-1.05591 3.3189,-1.9311 1.05591,-0.972047 1.88976,-2.1248 2.48622,-3.45827 0.597638,-1.31929 0.88937,-3.11102 0.88937,-5.3752 0,-3.36024 -0.805512,-5.94331 -2.44488,-7.76339 -1.6252,-1.8189 -3.75,-2.72244 -6.38858,-2.72244 -1.56969,0 -2.95866,0.250394 -4.16693,0.764173 -1.20827,0.51378 -2.31969,1.47165 -3.36142,2.84764 -0.943701,1.27677 -1.6937,3.04134 -2.25,5.29134 -0.555118,2.25 -0.832677,4.91693 -0.832677,7.97244l0 34.5969c0.569291,1.73622 1.72205,3.25039 3.45827,4.55551 1.73622,1.3063 3.72165,1.94528 5.97165,1.94528 3.47244,0 6.25039,-1.54252 8.33386,-4.65354 2.06929,-3.11102 3.11102,-7.36063 3.11102,-12.75z"/>
    </g>
</svg>