<svg xmlns="http://www.w3.org/2000/svg" viewBox="0 0 90 90">
    <g transform="translate(-223, -204)">
        <path d="M287.854 260.153c0,2.93031 -0.486614,5.67992 -1.45866,8.23583 -0.972047,2.57008 -2.30551,4.73622 -3.98622,6.52795 -1.76339,1.9311 -3.80551,3.41693 -6.1252,4.48583 -2.31969,1.05591 -4.98543,1.58386 -7.99961,1.58386 -2.8748,0 -5.54173,-0.527953 -7.98661,-1.58386 -2.45787,-1.0689 -4.54134,-2.51339 -6.24921,-4.36063 -1.70906,-1.84724 -3.02835,-4.02756 -3.97323,-6.5563 -0.930709,-2.51339 -1.40197,-5.22165 -1.40197,-8.1248 0,-2.93031 0.444094,-5.48622 1.31929,-7.68071 0.888189,-2.18031 2.1248,-4.13858 3.72165,-5.8748 1.55551,-1.68071 3.40276,-3.04134 5.55591,-4.0689 2.16614,-1.02874 4.43031,-1.73622 6.81969,-2.11181l0 -0.249213c-4.77756,-1.73622 -8.25,-3.5563 -10.4173,-5.45906 -2.16614,-1.88858 -3.24921,-4.31929 -3.24921,-7.27795 0,-1.22244 0.304724,-2.45787 0.916535,-3.72165 0.596457,-1.26378 1.59685,-2.44488 2.98583,-3.5563 1.33346,-1.0689 3.11102,-1.94409 5.33386,-2.62441 2.22165,-0.694488 4.86024,-1.04173 7.92992,-1.04173 4.66654,0 8.38937,0.832677 11.1945,2.48622 2.79213,1.65236 4.1811,3.83268 4.1811,6.54094 0,1.52835 -0.320079,2.76496 -0.972047,3.70866 -0.65315,0.944882 -1.70906,1.43031 -3.16654,1.43031 -1.63937,0 -2.86181,-0.388583 -3.66732,-1.15276 -0.819685,-0.75 -1.22244,-1.62402 -1.22244,-2.59724 0,-1.13858 0.125197,-2.22165 0.388583,-3.23622 0.250394,-1.01339 0.445276,-1.83307 0.542126,-2.45787 -0.51378,-0.402756 -1.3748,-0.791339 -2.59724,-1.13858 -1.22244,-0.361417 -2.73543,-0.527953 -4.55551,-0.527953 -2.61142,0 -4.79173,0.735827 -6.56929,2.20866 -1.77756,1.48583 -2.66693,3.22205 -2.66693,5.23583 0,2.22165 0.916535,4.09724 2.73661,5.61142 1.83307,1.52717 5.22165,3.61063 10.1528,6.26339 2.83346,1.52835 5.19449,3.06969 7.12441,4.63937 1.9311,1.58268 3.4311,3.20787 4.51417,4.88858 1.08307,1.70787 1.83307,3.48661 2.23583,5.33386 0.416929,1.83307 0.611811,3.91654 0.611811,6.22205zm-8.45906 0.318898c0,-4.73622 -0.861024,-8.5689 -2.5689,-11.472 -1.70906,-2.90315 -4.29213,-4.88858 -7.76457,-5.98583 -3.49961,0 -6.36024,1.55551 -8.58307,4.66654 -2.22165,3.11102 -3.34724,7.3748 -3.34724,12.7913 0,2.38937 0.23622,4.61102 0.694488,6.6815 0.458268,2.05512 1.16693,3.90236 2.1248,5.52756 0.88937,1.58268 2.04213,2.83346 3.4311,3.79134 1.40197,0.944882 3,1.41614 4.8189,1.41614 1.84724,0 3.48661,-0.458268 4.90276,-1.3748 1.4315,-0.930709 2.61142,-2.20748 3.56929,-3.83268 0.917717,-1.65354 1.59803,-3.51378 2.0563,-5.57008 0.444094,-2.06929 0.666142,-4.27795 0.666142,-6.63898z"/>    
    </g>
</svg>