<?xml version="1.0" encoding="UTF-8" standalone="no"?>
<!-- Created with Inkscape -->

<svg
   width="210mm"
   height="297mm"
   viewBox="0 0 210 297"
   version="1.1"
   id="svg1"
   xmlns:xlink="http://www.w3.org/1999/xlink"
   xmlns="http://www.w3.org/2000/svg">

  <defs id="defs1">

    <!-- Gradientes convertidos a currentColor -->
    <linearGradient id="linearGradient9">
      <stop offset="0.77777779" style="stop-color:currentColor;stop-opacity:1;" />
      <stop offset="0.9222222" style="stop-color:currentColor;stop-opacity:0;" />
    </linearGradient>

    <linearGradient id="linearGradient2">
      <stop offset="0.82222223" style="stop-color:currentColor;stop-opacity:1;" />
      <stop offset="0.92777777" style="stop-color:currentColor;stop-opacity:0;" />
    </linearGradient>

    <linearGradient id="linearGradient17">
      <stop offset="0.30000001" style="stop-color:currentColor;stop-opacity:1;" />
      <stop offset="0.7027778" style="stop-color:currentColor;stop-opacity:0;" />
    </linearGradient>

    <linearGradient id="linearGradient15">
      <stop offset="0.30000001" style="stop-color:currentColor;stop-opacity:1;" />
      <stop offset="0.69999999" style="stop-color:currentColor;stop-opacity:0;" />
    </linearGradient>

    <linearGradient id="linearGradient13">
      <stop offset="0.29722223" style="stop-color:currentColor;stop-opacity:1;" />
      <stop offset="0.69722223" style="stop-color:currentColor;stop-opacity:0;" />
    </linearGradient>

    <linearGradient id="linearGradient10">
      <stop offset="0.29722223" style="stop-color:currentColor;stop-opacity:1;" />
      <stop offset="0.69999999" style="stop-color:currentColor;stop-opacity:0;" />
    </linearGradient>

    <linearGradient id="linearGradient7">
      <stop offset="0" style="stop-color:currentColor;stop-opacity:1;" />
      <stop offset="1" style="stop-color:currentColor;stop-opacity:0;" />
    </linearGradient>

    <linearGradient id="linearGradient7-1">
      <stop offset="0.30000001" style="stop-color:currentColor;stop-opacity:1;" />
      <stop offset="0.69999999" style="stop-color:currentColor;stop-opacity:0;" />
    </linearGradient>

    <!-- Gradientes con referencias conservadas -->
    <linearGradient xlink:href="#linearGradient7-1" id="linearGradient8"
       x1="104.99996" y1="7.4999242" x2="104.99997" y2="217.49994"
       gradientUnits="userSpaceOnUse" />

    <linearGradient xlink:href="#linearGradient10" id="linearGradient12"
       x1="105.00001" y1="11.56187" x2="105.00001" y2="216.56175"
       gradientUnits="userSpaceOnUse" />

    <linearGradient xlink:href="#linearGradient13" id="linearGradient14"
       x1="105.0005" y1="26.501015" x2="105.0005" y2="211.50143"
       gradientUnits="userSpaceOnUse" />

    <linearGradient xlink:href="#linearGradient15" id="linearGradient16"
       x1="105.00005" y1="29.999672" x2="105.00005" y2="209.99994"
       gradientUnits="userSpaceOnUse" />

    <linearGradient xlink:href="#linearGradient17" id="linearGradient18"
       x1="105" y1="45.00013" x2="105" y2="204.99976"
       gradientUnits="userSpaceOnUse" />

    <linearGradient xlink:href="#linearGradient2" id="linearGradient3"
       x1="104.99999" y1="28.962055" x2="104.99999" y2="88.962036"
       gradientUnits="userSpaceOnUse" />

    <linearGradient xlink:href="#linearGradient9" id="linearGradient20"
       x1="105" y1="34.017319" x2="105" y2="84.017319"
       gradientUnits="userSpaceOnUse" />

  </defs>

  <g id="layer1">

    <path id="path7"
       style="fill:none;stroke:url(#linearGradient8);stroke-width:1"
       d="M 75.98,64.58 C 32.38,77.15 0.5,117.35 0.5,165 H 209.5 c 0,-47.67 -31.92,-87.89 -75.56,-100.44" />

    <path id="path5"
       style="fill:none;stroke:url(#linearGradient12);stroke-width:1"
       d="M 76.46,67.05 C 34.01,79.40 3,118.58 2.999,165.01 H 207.02 c 0,-46.48 -31.09,-85.71 -73.61,-98" />

    <path id="path3"
       style="fill:none;stroke:url(#linearGradient14);stroke-width:1"
       d="m 80.38,76.34 c -38.85,10.78 -67.37,46.42 -67.37,88.71 H 197.13 c 0,-42.41 -28.67,-78.12 -67.69,-88.80" />

    <path id="path2"
       style="fill:none;stroke:url(#linearGradient16);stroke-width:1"
       d="M 82.13,78.46 C 43.77,88.59 15.5,123.53 15.5,165.07 H 194.64 c 0,-41.67 -28.45,-76.69 -66.99,-86.70" />

    <path id="path13"
       style="fill:none;stroke:url(#linearGradient18);stroke-width:1"
       d="M 184.74,165.12 C 184.74,121.14 149.09,85.5 105.12,85.5 61.14,85.5 25.5,121.14 25.5,165.12" />

    <path id="rect19"
       style="fill:currentColor;stroke:currentColor;stroke-width:1"
       d="M 93.78,86.40 91.64,60.51 m 13.32,-0.73 2.14,25.88" />

    <path id="rect20"
       style="fill:none;stroke:currentColor"
       d="m 117.65,66.17 -1.90,20.36" />

    <path id="path1"
       style="fill:none;stroke:currentColor;stroke-width:1"
       d="m 96.25,36.03 -7.95,25.72 c 0,0 6.63,-1.83 10.04,-2.10 3.28,-0.25 9.88,0.49 9.88,0.49 z" />

    <path id="path1-8"
       style="fill:none;stroke:currentColor;stroke-width:1"
       d="m 105.81,64.71 c 1.83,-0.12 4.23,-0.23 5.76,-0.09 2.66,0.24 7.84,1.75 7.84,1.75 L 113.15,45.41 106.83,57.82" />

    <path id="rect2"
       style="fill:currentColor;stroke:currentColor"
       d="m 95.14,39.93 0,-4.77 m 16.22,-0.36 0,14.16" />

    <path id="path1-1"
       style="fill:none;stroke:currentColor;stroke-width:1.02"
       d="M 103.16,9.78 93.15,35.54 c 0,0 6.92,-1.39 10.44,-1.42 3.38,-0.02 10.08,1.22 10.08,1.22 z" />

    <ellipse id="path4"
       style="fill:none;stroke:currentColor;stroke-width:1"
       cx="89.71" cy="75.60" rx="1.93" ry="3.40"
       transform="rotate(-5.47)" />

    <ellipse id="path6"
       style="fill:none;stroke:currentColor;stroke-width:1"
       cx="105.25" cy="40.94" rx="3.12" ry="4.32" />

    <path id="path22"
       style="fill:none;stroke:url(#linearGradient3);stroke-width:1"
       d="M 91.90,86.44 C 82.18,81.61 75.5,71.58 75.5,60 c 0,-12.55 7.84,-23.27 18.89,-27.53 m 17.93,-1.04 c 12.74,3.25 22.16,14.81 22.16,28.58 0,11.66 -6.77,21.75 -16.60,26.54" />

    <path id="path8"
       style="fill:none;stroke:url(#linearGradient20);stroke-width:1"
       d="M 111.44,36.35 C 121.84,39.18 129.49,48.69 129.49,60 c 0,9.43 -5.33,17.62 -13.15,21.71 M 93.29,81.52 C 85.67,77.37 80.5,69.28 80.5,60 c 0,-10.03 6.03,-18.66 14.67,-22.45" />

  </g>

</svg>
