<svg xmlns="http://www.w3.org/2000/svg" viewBox="0 0 90 90">
    <g transform="translate(-354, -212)">
        <path d="M415.442 224.708c-3.47244,2.44488 -6.65315,4.97244 -9.55512,7.56969 -2.90315,2.61142 -5.55591,5.4437 -7.94528,8.50039 -2.27717,2.95748 -4.09724,6.12402 -5.47205,9.49961 -1.36063,3.38858 -2.05512,6.86102 -2.05512,10.4445 0,2.16614 0.277559,4.01339 0.832677,5.55591 0.556299,1.52717 1.34764,2.77795 2.34803,3.76299 0.999213,0.944882 2.15197,1.63937 3.45827,2.07047 1.30512,0.429921 2.69409,0.680315 4.19409,0.735827 0.569291,0 1.12441,0.0271654 1.68071,0.0826772 0.555118,0.0555118 1.0689,0.0838583 1.52717,0.0838583 3.36142,0.0838583 5.90315,1.02756 7.61102,2.86063 1.70906,1.83425 2.55591,4.26496 2.55591,7.3063 0,3.30591 -1.38898,6.34724 -4.17992,9.09685 -2.79213,2.75079 -6.23622,4.12559 -10.3335,4.12559 -2.84764,0 -4.87559,-0.347244 -6.06969,-1.02874 -1.19409,-0.693307 -1.79173,-1.70787 -1.79173,-3.04134 0,-1.08307 0.333071,-1.94409 1.00039,-2.59724 0.666142,-0.651969 1.65236,-0.98622 2.94449,-0.98622 0.762992,0 1.44449,0.153543 2.05512,0.458268 0.61063,0.291732 1.15276,0.638976 1.61102,1.01457 0.431102,0.318898 0.957874,0.75 1.56969,1.26378 0.61063,0.51378 1.17992,0.902362 1.72205,1.17992 0.65315,-0.0555118 1.36063,-0.207874 2.13898,-0.47126 0.777165,-0.264567 1.51417,-0.694488 2.22165,-1.32047 0.737008,-0.624803 1.32047,-1.34646 1.75039,-2.18031 0.431102,-0.819685 0.65315,-1.94409 0.65315,-3.36142 0,-1.94409 -0.583465,-3.37441 -1.75039,-4.29094 -1.16693,-0.902362 -3,-1.41732 -5.50039,-1.52835 -0.832677,-0.0271654 -1.47165,-0.0413386 -1.91575,-0.0685039 -0.431102,-0.0283465 -1.15276,-0.0566929 -2.15315,-0.0838583 -4.69488,-0.13937 -8.54173,-1.72205 -11.5276,-4.76339 -3,-3.04252 -4.5,-6.94488 -4.5,-11.7224 0,-3.33425 0.596457,-6.5563 1.80472,-9.6815 1.20827,-3.12402 2.95866,-6.23622 5.23701,-9.36024 2.13898,-2.9315 4.72205,-5.84764 7.72205,-8.76496 3.01417,-2.91614 6.47244,-6.01299 10.3748,-9.30472l0 -0.445276 -14.9728 0.167717c-2.73543,0.0271654 -4.73504,-0.389764 -5.97165,-1.22244 -1.24961,-0.848031 -1.87559,-1.9311 -1.87559,-3.25039 0,-1.0689 0.291732,-1.98661 0.88937,-2.77795 0.597638,-0.777165 1.56969,-1.17992 2.88898,-1.17992 1.33346,0 2.43071,0.249213 3.27756,0.735827 0.861024,0.485433 1.65354,1.02756 2.38937,1.6252 0.805512,0.651969 1.52717,1.20827 2.15197,1.65236 0.625984,0.444094 1.6122,0.667323 2.97283,0.667323 2.93031,0 5.6811,-0.0838583 8.25,-0.264567 2.58307,-0.166535 5.16614,-0.347244 7.73622,-0.499606l0 3.73583z"/>
    </g>
</svg>