<svg xmlns="http://www.w3.org/2000/svg" viewBox="0 0 90 90">
    <g transform="translate(-291, -214)">
        <path d="M353.62 269.515c-1.84724,3.8185 -4.29094,6.68031 -7.34646,8.58307 -3.05669,1.90276 -6.44528,2.84764 -10.1953,2.84764 -2.19449,0 -4.31929,-0.223228 -6.36142,-0.667323 -2.05512,-0.458268 -3.90236,-1.17992 -5.55472,-2.18031 -1.6252,-0.972047 -2.9315,-2.22283 -3.90354,-3.75 -0.98622,-1.51417 -1.47165,-3.27756 -1.47165,-5.29134 0,-1.80591 0.347244,-3.34724 1.05591,-4.6122 0.70748,-1.26378 1.63819,-2.33268 2.80512,-3.23504 1.11142,-0.819685 2.33268,-1.41732 3.66614,-1.79173 1.33346,-0.375591 2.65276,-0.611811 3.98622,-0.694488l0 -0.402756c-2.02795,-0.347244 -3.72165,-0.875197 -5.08346,-1.58386 -1.36063,-0.708661 -2.40236,-1.48583 -3.13819,-2.31969 -0.722835,-0.875197 -1.22244,-1.77756 -1.5,-2.72244 -0.277559,-0.957874 -0.402756,-1.88858 -0.402756,-2.81929 0,-1.05472 0.23622,-2.13898 0.721654,-3.26339 0.500787,-1.13858 1.41732,-2.26417 2.77795,-3.40276 1.22244,-1.05591 2.88898,-1.9311 4.99961,-2.62559 2.11181,-0.694488 4.63937,-1.04173 7.56969,-1.04173 4.69488,0 8.33386,0.848031 10.9028,2.54173 2.58425,1.69488 3.86102,3.98622 3.86102,6.86102 0,1.3063 -0.290551,2.45906 -0.888189,3.47244 -0.597638,1.02756 -1.63937,1.52835 -3.13937,1.52835 -1.59685,0 -2.81929,-0.389764 -3.68031,-1.15276 -0.84685,-0.778346 -1.27795,-1.65354 -1.27795,-2.62559 0,-0.999213 0.0968504,-1.97244 0.277559,-2.88898 0.194882,-0.930709 0.375591,-1.88858 0.542126,-2.88898 -0.555118,-0.458268 -1.44449,-0.875197 -2.69409,-1.22244 -1.25079,-0.346063 -2.51457,-0.526772 -3.81969,-0.526772 -2.47205,0 -4.41732,0.70748 -5.81929,2.13898 -1.41732,1.41614 -2.11181,3.09685 -2.11181,5.01378 0,2.88898 0.65315,4.95827 1.97244,6.23622 1.30512,1.27677 3.54213,1.90276 6.69449,1.90276l3.37559 0 0 3.79134 -4.40315 0c-1.82008,0 -3.30591,0.23622 -4.45866,0.694488 -1.15276,0.458268 -2.05512,1.05591 -2.73543,1.79173 -0.65315,0.721654 -1.09724,1.55551 -1.34764,2.50039 -0.250394,0.929528 -0.361417,1.87441 -0.361417,2.81929 0,2.72244 0.930709,4.76339 2.8063,6.15236 1.87441,1.3748 4.27677,2.06929 7.23543,2.06929 3.04134,0 5.63858,-0.708661 7.77756,-2.11063 2.13898,-1.41732 4.08425,-3.70866 5.82047,-6.8752l2.84646 1.75039z"/>
    </g>
</svg>