<svg xmlns="http://www.w3.org/2000/svg" viewBox="0 0 90 90">
    <g transform="translate(-153, -223)">
        <path d="M204.726 288.917c0,2.07047 -0.125197,3.69449 -0.375591,4.90276 -0.23622,1.20945 -0.569291,2.09764 -0.972047,2.66693 -0.402756,0.569291 -0.861024,0.930709 -1.36063,1.09724 -0.500787,0.166535 -1.08425,0.250394 -1.73622,0.250394 -1.3748,0 -2.43071,-0.444094 -3.15354,-1.31929 -0.721654,-0.88937 -1.08307,-2.20866 -1.08307,-3.97205 0,-1.90276 0.180709,-3.98622 0.51378,-6.26457 0.347244,-2.27717 0.833858,-4.65236 1.48583,-7.12441 -2.08228,-6.23622 -4.12441,-11.6398 -6.09685,-16.2094 -1.98543,-4.58268 -4.3748,-10.0417 -7.16693,-16.389 -0.624803,-1.3748 -1.48583,-2.34685 -2.61024,-2.90197 -1.11142,-0.556299 -2.54173,-0.875197 -4.3063,-0.959055l0 -2.63858 12.0839 -0.902362 0.569291 0.569291c0.735827,1.90276 1.72205,4.23543 2.97165,7.02756 1.25079,2.77795 2.54173,5.79213 3.86102,9.04134 1.02874,2.50039 2.09764,5.41772 3.19488,8.75079 1.09724,3.34724 1.75039,5.93031 1.9311,7.77756 0.902362,-2.36102 1.98543,-4.79173 3.26339,-7.29213 1.27795,-2.48622 2.22283,-4.47165 2.84764,-5.93031 0.680315,-1.61102 1.16693,-2.90315 1.48583,-3.91654 0.305906,-1.00039 0.458268,-1.91693 0.458268,-2.76378 0,-1.6252 -0.194882,-3.29173 -0.597638,-4.99961 -0.415748,-1.70906 -0.61063,-3.1122 -0.61063,-4.19528 0,-1.19409 0.444094,-2.26417 1.33346,-3.23622 0.902362,-0.957874 2.05512,-1.44449 3.45827,-1.44449 1.44449,0 2.58307,0.416929 3.41693,1.22244 0.84685,0.819685 1.26378,1.99961 1.26378,3.54213 0,1.70787 -0.416929,3.54094 -1.23661,5.48622 -0.832677,1.95827 -1.79173,4.01339 -2.8748,6.15236 -1.6252,3.22205 -3.52795,6.81969 -5.70827,10.7776 -2.19449,3.95906 -4.01339,7.9311 -5.47205,11.889 0.263386,2.41654 0.540945,4.59803 0.805512,6.54213 0.277559,1.95827 0.416929,3.54213 0.416929,4.76339z"/>
    </g>
</svg>