<?xml version="1.0" encoding="UTF-8"?>
<!DOCTYPE svg PUBLIC "-//W3C//DTD SVG 1.1//EN" "http://www.w3.org/Graphics/SVG/1.1/DTD/svg11.dtd">
<!-- Creator: CorelDRAW -->
<svg xmlns="http://www.w3.org/2000/svg" xml:space="preserve" width="900px" height="425px" style="shape-rendering:geometricPrecision; text-rendering:geometricPrecision; image-rendering:optimizeQuality; fill-rule:evenodd; clip-rule:evenodd"
viewBox="0 0 900 424.998"
 xmlns:xlink="http://www.w3.org/1999/xlink">
 <defs>
  <style type="text/css">
   <![CDATA[
    .fil0 {fill:#1F1A17;fill-rule:nonzero}
   ]]>
  </style>
 </defs>
 <g id="Layer_x0020_1">
  <metadata id="CorelCorpID_0Corel-Layer"/>
  <path class="fil0" d="M79.9783 90.4004l-24.0413 0 0 -2.88898c2.11063,-0.13937 3.86102,-0.402756 5.26299,-0.819685 1.40315,-0.402756 2.09764,-0.902362 2.09764,-1.5 0,-0.249213 -0.0271654,-0.540945 -0.0826772,-0.888189 -0.0555118,-0.361417 -0.13937,-0.667323 -0.250394,-0.944882l-4.79173 -12.9307 -20.2228 0c-0.762992,1.88858 -1.3748,3.54213 -1.86024,4.95827 -0.472441,1.40315 -0.903543,2.70827 -1.27795,3.90354 -0.347244,1.16575 -0.597638,2.1248 -0.735827,2.84646 -0.125197,0.735827 -0.194882,1.33346 -0.194882,1.79173 0,1.08307 0.84685,1.9311 2.55591,2.52756 1.70787,0.597638 3.63898,0.944882 5.77677,1.05591l0 2.88898 -21.7217 0 0 -2.88898c0.708661,-0.0555118 1.58268,-0.207874 2.63858,-0.472441 1.05591,-0.249213 1.9311,-0.596457 2.61142,-1.02756 1.08307,-0.735827 1.91693,-1.5 2.51339,-2.30551 0.597638,-0.805512 1.1811,-1.90276 1.75039,-3.3189 2.90315,-7.23661 6.11102,-15.3756 9.61063,-24.4169 3.50079,-9.02835 6.61181,-17.0705 9.36142,-24.1252l3.25039 0 19.2496 49.8059c0.402756,1.05472 0.861024,1.91575 1.37598,2.5689 0.526772,0.65315 1.23543,1.27795 2.16614,1.90276 0.624803,0.388583 1.43031,0.708661 2.43071,0.959055 1.01339,0.263386 1.84724,0.402756 2.52756,0.429921l0 2.88898zm-23.2783 -23.5972l-8.74961 -22.389 -8.58307 22.389 17.3327 0z"/>
  <path id="1" class="fil0" d="M133.028 63.4972c1.68071,1.13858 3.08268,2.63858 4.19409,4.48583 1.11142,1.84724 1.66654,4.08425 1.66654,6.70866 0,2.6811 -0.583465,5.01378 -1.75039,7.00039 -1.16575,1.98543 -2.67992,3.61063 -4.55551,4.88858 -1.8189,1.23661 -3.87402,2.19449 -6.16654,2.84764 -2.29134,0.65315 -4.65236,0.972047 -7.09724,0.972047l-27.3472 0 0 -2.88898c0.65315,-0.0555118 1.61102,-0.166535 2.84764,-0.347244 1.24961,-0.180709 2.15197,-0.388583 2.69409,-0.624803 0.833858,-0.388583 1.43031,-0.88937 1.79173,-1.52835 0.347244,-0.638976 0.527953,-1.45748 0.527953,-2.45787l0 -41.5146c0,-0.916535 -0.152362,-1.73622 -0.472441,-2.4437 -0.305906,-0.694488 -0.930709,-1.26378 -1.84724,-1.70906 -0.819685,-0.402756 -1.72205,-0.70748 -2.73661,-0.930709 -0.999213,-0.222047 -1.83307,-0.347244 -2.51339,-0.402756l0 -2.88898 26.6528 0c2.0563,0 4.02756,0.194882 5.91732,0.611811 1.88858,0.402756 3.68031,1.12441 5.38819,2.15315 1.59803,0.943701 2.91732,2.23583 3.94488,3.86102 1.04173,1.62402 1.55551,3.61063 1.55551,5.94449 0,2.04094 -0.375591,3.84685 -1.09724,5.43071 -0.735827,1.58268 -1.76339,2.95748 -3.09685,4.09724 -1.25079,1.08307 -2.6811,1.99961 -4.29213,2.73543 -1.61102,0.75 -3.36142,1.33346 -5.23583,1.73622l0 0.361417c1.66654,0.193701 3.51378,0.61063 5.55591,1.24961 2.05512,0.624803 3.87402,1.51417 5.47205,2.65276zm-9.80551 -8.69409c1.01339,-1.16693 1.70787,-2.44488 2.09646,-3.83386 0.402756,-1.3748 0.597638,-3.02717 0.597638,-4.91693 0,-3.17953 -0.875197,-5.66575 -2.61142,-7.47165 -1.73622,-1.80591 -4.47165,-2.70827 -8.22165,-2.70827 -0.861024,0 -1.95827,0.0271654 -3.26457,0.069685 -1.31929,0.0413386 -2.43071,0.0685039 -3.3189,0.0968504l0 22.1811 5.16614 0c2.22283,0 4.12559,-0.291732 5.70827,-0.861024 1.59803,-0.570472 2.8748,-1.41732 3.84803,-2.55591zm5.62441 18.4299c0,-3.41575 -1.15276,-6.23504 -3.44409,-8.42953 -2.29134,-2.19449 -5.57008,-3.29173 -9.81969,-3.29173 -1.73622,0 -3.20787,0.0129921 -4.40315,0.0555118 -1.19409,0.0413386 -2.08346,0.0826772 -2.67992,0.111024l0 20.3327c0,1.72323 0.694488,3 2.06929,3.8752 1.38898,0.861024 3.30591,1.3063 5.77795,1.3063 4.04173,0 7.13858,-1.1811 9.27756,-3.54213 2.13898,-2.36102 3.22205,-5.83346 3.22205,-10.4173z"/>
  <path id="12" class="fil0" d="M200.619 48.8173l-3.05551 0c-0.264567,-1.05591 -0.638976,-2.1815 -1.09724,-3.37559 -0.458268,-1.19409 -1.15276,-2.55591 -2.06929,-4.0689 -0.875197,-1.41732 -1.76457,-2.58425 -2.66693,-3.50079 -0.903543,-0.930709 -1.95827,-1.47165 -3.15354,-1.6252 -0.916535,-0.138189 -2.05512,-0.23622 -3.40276,-0.291732 -1.33346,-0.0555118 -2.62441,-0.0826772 -3.84685,-0.0826772l-8.29134 0 0 46.3051c0,0.930709 0.207874,1.73622 0.651969,2.43071 0.431102,0.681496 1.08425,1.25079 1.94528,1.68071 0.540945,0.250394 1.52717,0.500787 2.95748,0.778346 1.41732,0.263386 2.58425,0.416929 3.47244,0.444094l0 2.88898 -25.9169 0 0 -2.88898c0.819685,-0.0555118 1.90276,-0.13937 3.25039,-0.263386 1.36063,-0.125197 2.23583,-0.27874 2.65276,-0.472441 0.805512,-0.347244 1.40315,-0.875197 1.76457,-1.56969 0.374409,-0.680315 0.555118,-1.51417 0.555118,-2.50039l0 -41.6669c0,-0.888189 -0.152362,-1.68071 -0.444094,-2.3752 -0.305906,-0.693307 -0.930709,-1.24961 -1.87559,-1.6937 -0.735827,-0.347244 -1.72205,-0.667323 -2.95866,-0.930709 -1.23543,-0.277559 -2.20748,-0.431102 -2.94449,-0.486614l0 -2.88898 44.4732 0 0 16.1539z"/>
  <path id="123" class="fil0" d="M265.597 90.4004l-53.4992 0 0 -2.02795 26.0409 -56.5276 3.16654 0 24.2917 56.5276 0 2.02795zm-11.472 -7.00039l-17.25 -40.3606 -18.3472 40.3606 35.5972 0z"/>
  <path id="1234" class="fil0" d="M328.952 73.3866l-1.09724 17.0138 -47.9315 0 0 -2.88898c0.819685,-0.0555118 1.90276,-0.166535 3.25039,-0.347244 1.36063,-0.180709 2.23583,-0.361417 2.65276,-0.542126 0.861024,-0.415748 1.47283,-0.943701 1.80591,-1.59685 0.347244,-0.65315 0.51378,-1.47165 0.51378,-2.47205l0 -41.5146c0,-0.888189 -0.152362,-1.68071 -0.444094,-2.3752 -0.305906,-0.693307 -0.930709,-1.24961 -1.87559,-1.6937 -0.735827,-0.347244 -1.72205,-0.667323 -2.95866,-0.930709 -1.23543,-0.277559 -2.20748,-0.431102 -2.94449,-0.486614l0 -2.88898 44.6811 0 0 13.9169 -3.05551 0c-0.542126,-2.06929 -1.72205,-4.24961 -3.51378,-6.56929 -1.80591,-2.31969 -3.52795,-3.59764 -5.15315,-3.80551 -0.84685,-0.111024 -1.84724,-0.194882 -3.01417,-0.250394 -1.16575,-0.0555118 -2.48504,-0.0826772 -3.98504,-0.0826772l-9.06969 0 0 22.9583 6.51378 0c2.08346,0 3.61063,-0.207874 4.56969,-0.597638 0.957874,-0.388583 1.80472,-1.05472 2.54173,-1.97126 0.596457,-0.79252 1.11024,-1.83425 1.52717,-3.15354 0.416929,-1.31929 0.694488,-2.55591 0.833858,-3.72165l3.05551 0 0 22.5827 -3.05551 0c-0.111024,-1.30512 -0.402756,-2.67992 -0.875197,-4.13858 -0.472441,-1.44449 -0.972047,-2.50039 -1.48583,-3.15236 -0.833858,-1.05591 -1.79173,-1.75039 -2.86181,-2.06929 -1.0689,-0.320079 -2.49921,-0.486614 -4.24961,-0.486614l-6.51378 0 0 17.3339c0,1.73622 0.125197,3.11102 0.360236,4.11024 0.250394,1.00039 0.722835,1.76457 1.4315,2.27835 0.694488,0.51378 1.66654,0.84685 2.88898,1.00039 1.22126,0.138189 2.95748,0.222047 5.20748,0.222047 0.88937,0 2.06929,0 3.54213,0 1.45866,0 2.69409,-0.0555118 3.69449,-0.166535 1.02756,-0.111024 2.09764,-0.305906 3.19488,-0.583465 1.09724,-0.291732 1.87441,-0.680315 2.34685,-1.16693 1.23661,-1.30512 2.55591,-3.27756 3.91654,-5.91732 1.3748,-2.65276 2.25,-4.59685 2.62559,-5.84646l2.93031 0z"/>
  <path id="12345" class="fil0" d="M390.321 72.372l-1.91693 18.0283 -46.389 0 0 -1.43031 36.3331 -53.0976 -13.3051 0c-1.54134,0 -2.83346,0.0271654 -3.8752,0.0826772 -1.05591,0.0555118 -2.01378,0.167717 -2.8748,0.334252 -1.79173,0.347244 -3.80551,1.8189 -6.04134,4.43031 -2.23701,2.59724 -3.93071,5.36102 -5.07047,8.26417l-2.84646 0 1.74921 -16.3205 43.2508 0 0 1.41732 -36.3331 53.1118 13.7079 0c2.30551,0 4.76457,-0.167717 7.3748,-0.500787 2.59724,-0.318898 4.29213,-0.875197 5.08346,-1.66654 1.76457,-1.68071 3.40276,-3.73583 4.91693,-6.18071 1.52835,-2.4437 2.65276,-4.59685 3.38858,-6.47244l2.84764 0z"/>
  <path id="123456" class="fil0" d="M464.856 90.4004l-23.9728 0 0 -2.88898c0.65315,-0.0555118 1.59803,-0.13937 2.83346,-0.250394 1.23661,-0.0968504 2.08346,-0.263386 2.54173,-0.485433 0.819685,-0.320079 1.41732,-0.819685 1.79173,-1.48583 0.375591,-0.667323 0.569291,-1.52835 0.569291,-2.58425l0 -20.5417 -27.1382 0 0 20.0976c0,0.944882 0.152362,1.75039 0.458268,2.40236 0.318898,0.65315 0.930709,1.22244 1.86142,1.70906 0.458268,0.249213 1.27677,0.485433 2.45787,0.735827 1.17992,0.23622 2.11063,0.375591 2.79213,0.402756l0 2.88898 -23.9728 0 0 -2.88898c0.65315,-0.0555118 1.59685,-0.13937 2.83346,-0.250394 1.23543,-0.0968504 2.08346,-0.263386 2.54173,-0.485433 0.805512,-0.320079 1.40197,-0.819685 1.79173,-1.48583 0.374409,-0.667323 0.569291,-1.52835 0.569291,-2.58425l0 -41.6669c0,-0.861024 -0.180709,-1.65236 -0.527953,-2.3752 -0.361417,-0.721654 -0.972047,-1.27677 -1.83307,-1.6937 -0.735827,-0.347244 -1.6252,-0.667323 -2.66693,-0.930709 -1.04173,-0.277559 -1.94409,-0.431102 -2.70827,-0.486614l0 -2.88898 23.9728 0 0 2.88898c-0.764173,0.0283465 -1.69488,0.153543 -2.79213,0.361417 -1.09724,0.222047 -1.91693,0.416929 -2.45787,0.611811 -0.930709,0.333071 -1.54252,0.874016 -1.86142,1.62402 -0.305906,0.764173 -0.458268,1.59803 -0.458268,2.48622l0 17.9031 27.1382 0 0 -17.5004c0,-0.861024 -0.179528,-1.65236 -0.526772,-2.3752 -0.361417,-0.721654 -0.973228,-1.27677 -1.83425,-1.6937 -0.735827,-0.347244 -1.62402,-0.667323 -2.66575,-0.930709 -1.04173,-0.277559 -1.94528,-0.431102 -2.70945,-0.486614l0 -2.88898 23.9728 0 0 2.88898c-0.764173,0.0283465 -1.69488,0.153543 -2.79213,0.361417 -1.09724,0.222047 -1.91575,0.416929 -2.45787,0.611811 -0.930709,0.333071 -1.54134,0.874016 -1.84724,1.62402 -0.318898,0.764173 -0.472441,1.59803 -0.472441,2.48622l0 41.6256c0,0.944882 0.153543,1.75039 0.472441,2.40236 0.305906,0.65315 0.916535,1.22244 1.84724,1.70906 0.458268,0.249213 1.27795,0.485433 2.45787,0.735827 1.1811,0.23622 2.11181,0.375591 2.79213,0.402756l0 2.88898z"/>
  <path id="1234567" class="fil0" d="M529.683 39.4972c2.54173,2.65276 4.54134,5.86063 5.97165,9.6248 1.44449,3.75 2.15315,7.91693 2.15315,12.4724 0,4.58386 -0.722835,8.75079 -2.19449,12.4866 -1.45866,3.75 -3.49961,6.93071 -6.09685,9.56929 -2.52874,2.59724 -5.45906,4.61102 -8.79213,6.01417 -3.33307,1.41614 -6.88937,2.1248 -10.6665,2.1248 -4.01457,0 -7.72205,-0.764173 -11.1248,-2.26417 -3.40276,-1.5 -6.32008,-3.59764 -8.76496,-6.29173 -2.4437,-2.62441 -4.36063,-5.81929 -5.76378,-9.58346 -1.38898,-3.75 -2.09646,-7.77756 -2.09646,-12.0555 0,-4.69488 0.735827,-8.8748 2.20748,-12.5551 1.45866,-3.6815 3.48661,-6.86102 6.05551,-9.54213 2.55591,-2.65276 5.51457,-4.69488 8.88898,-6.11102 3.37559,-1.40315 6.91772,-2.11063 10.598,-2.11063 3.83268,0 7.44449,0.721654 10.8331,2.15197 3.38858,1.44449 6.32008,3.45827 8.79213,6.06969zm-5.98701 40.9724c1.51417,-2.47205 2.62559,-5.26417 3.33425,-8.3752 0.70748,-3.1252 1.05472,-6.6248 1.05472,-10.5 0,-3.93071 -0.388583,-7.58268 -1.17992,-10.9299 -0.778346,-3.34724 -1.9311,-6.16772 -3.45827,-8.44488 -1.51417,-2.33386 -3.38858,-4.13858 -5.62559,-5.40354 -2.25,-1.27677 -4.83307,-1.91575 -7.76339,-1.91575 -3.25039,0 -6.02835,0.75 -8.31969,2.23583 -2.29134,1.48583 -4.15276,3.48661 -5.59724,5.98583 -1.40315,2.41654 -2.44488,5.22283 -3.11102,8.41654 -0.65315,3.20906 -0.98622,6.5563 -0.98622,10.0559 0,3.98622 0.374409,7.56969 1.13858,10.7646 0.75,3.18071 1.84724,5.91614 3.29173,8.19449 1.48583,2.38819 3.36142,4.24961 5.59724,5.59724 2.23583,1.34646 4.90276,2.01378 7.98661,2.01378 3.01417,0 5.67992,-0.694488 7.99961,-2.08346 2.31969,-1.3748 4.19528,-3.25039 5.63858,-5.61142zm-2.08228 -9.63898l-2.6811 0c-0.222047,-1.16693 -0.458268,-2.15315 -0.735827,-2.95866 -0.264567,-0.791339 -0.583465,-1.45748 -0.930709,-1.97126 -0.305906,-0.486614 -1.01457,-0.819685 -2.15315,-0.98622 -1.13858,-0.180709 -2.81929,-0.27874 -5.05512,-0.27874 -2.81929,0 -4.65354,0.112205 -5.48622,0.305906 -0.84685,0.209055 -1.41732,0.527953 -1.70906,0.959055 -0.429921,0.624803 -0.777165,1.34646 -1.01339,2.18031 -0.250394,0.832677 -0.472441,1.74921 -0.65315,2.74961l-2.69409 0 0 -18.5138 2.69409 0c0.180709,1.08307 0.416929,1.99961 0.667323,2.76378 0.263386,0.764173 0.596457,1.45866 0.999213,2.06929 0.291732,0.499606 0.917717,0.833858 1.84724,1.00039 0.944882,0.180709 2.72244,0.263386 5.34803,0.263386 2.4437,0 4.17992,-0.0826772 5.20866,-0.263386 1.04173,-0.166535 1.6937,-0.500787 1.99961,-1.00039 0.486614,-0.75 0.84685,-1.52717 1.08307,-2.31969 0.222047,-0.777165 0.416929,-1.62402 0.583465,-2.51339l2.6811 0 0 18.5138z"/>
  <path id="12345678" class="fil0" d="M580.343 90.4004l-26.015 0 0 -2.88898c0.737008,-0.0555118 1.79173,-0.13937 3.18071,-0.250394 1.38898,-0.0968504 2.36102,-0.263386 2.9315,-0.485433 0.888189,-0.347244 1.54134,-0.833858 1.95827,-1.44449 0.402756,-0.611811 0.596457,-1.45866 0.596457,-2.54173l0 -41.8335c0,-0.944882 -0.138189,-1.73622 -0.444094,-2.3752 -0.291732,-0.638976 -1.00039,-1.16693 -2.11063,-1.61102 -0.819685,-0.320079 -1.83425,-0.624803 -3.06969,-0.916535 -1.23661,-0.277559 -2.25,-0.445276 -3.04252,-0.500787l0 -2.88898 26.015 0 0 2.88898c-0.848031,0.0283465 -1.84724,0.125197 -3.01417,0.305906 -1.16693,0.166535 -2.18031,0.402756 -3.05551,0.667323 -1.02756,0.333071 -1.72205,0.861024 -2.06929,1.58268 -0.361417,0.735827 -0.527953,1.55551 -0.527953,2.44488l0 41.7921c0,0.888189 0.193701,1.67953 0.583465,2.37402 0.388583,0.694488 1.0689,1.25079 2.01378,1.65354 0.569291,0.222047 1.5,0.458268 2.79094,0.708661 1.27795,0.263386 2.3752,0.402756 3.27874,0.429921l0 2.88898z"/>
  <path id="123456789" class="fil0" d="M653.655 90.4004l-16.1941 0c-3.11102,-4.83307 -6.58346,-9.6248 -10.389,-14.3894 -3.81969,-4.74921 -7.80591,-9.37441 -11.987,-13.8472l-1.05472 0 0 20.0976c0,0.902362 0.166535,1.69488 0.499606,2.40236 0.347244,0.708661 0.957874,1.27795 1.86142,1.70906 0.429921,0.193701 1.23543,0.416929 2.41654,0.694488 1.17992,0.263386 2.16614,0.416929 2.94449,0.444094l0 2.88898 -23.9587 0 0 -2.88898c0.624803,-0.0555118 1.52835,-0.13937 2.72244,-0.250394 1.19409,-0.0968504 2.04094,-0.263386 2.52756,-0.485433 0.805512,-0.347244 1.40315,-0.875197 1.76457,-1.56969 0.374409,-0.680315 0.555118,-1.51417 0.555118,-2.50039l0 -41.6669c0,-0.916535 -0.152362,-1.72205 -0.472441,-2.40236 -0.305906,-0.666142 -0.930709,-1.22244 -1.84724,-1.66654 -0.735827,-0.347244 -1.59685,-0.667323 -2.61142,-0.930709 -0.999213,-0.277559 -1.87441,-0.431102 -2.63858,-0.486614l0 -2.88898 23.9587 0 0 2.88898c-0.75,0.0283465 -1.70906,0.153543 -2.84764,0.361417 -1.13858,0.222047 -1.97244,0.416929 -2.51339,0.611811 -0.930709,0.333071 -1.55551,0.874016 -1.87559,1.62402 -0.318898,0.764173 -0.485433,1.59803 -0.485433,2.48622l0 19.9453 0.805512 0c2.4437,-2.06929 4.84724,-4.22244 7.20827,-6.45827 2.36102,-2.23701 4.5,-4.47283 6.42992,-6.69449 2.13898,-2.45906 3.70866,-4.44449 4.69488,-5.91732 0.98622,-1.47165 1.48583,-2.79094 1.48583,-3.93071 0,-0.402756 -0.249213,-0.735827 -0.75,-0.999213 -0.499606,-0.250394 -1.08307,-0.458268 -1.73622,-0.625984 -0.75,-0.166535 -1.43031,-0.263386 -2.02677,-0.304724 -0.597638,-0.0425197 -1.08425,-0.069685 -1.47283,-0.0980315l0 -2.88898 21.6531 0 0 2.88898c-0.0838583,0 -0.250394,0.0141732 -0.527953,0.0425197 -0.277559,0.0271654 -0.583465,0.0555118 -0.930709,0.0826772 -0.388583,0.0283465 -0.764173,0.069685 -1.13858,0.153543 -0.388583,0.0826772 -0.875197,0.179528 -1.47283,0.291732 -0.943701,0.207874 -1.92992,0.555118 -2.94449,1.02756 -1.02756,0.485433 -1.86024,1.0689 -2.49921,1.77756 -2.8063,3.16654 -5.72244,6.45827 -8.75079,9.84685 -3.04134,3.38976 -6.05551,6.48661 -9.04134,9.27874 4.12559,4.66654 7.54134,8.67992 10.2366,12.0413 2.69409,3.36142 5.5689,6.95787 8.61024,10.7776 1.16693,1.47283 2.33386,2.63858 3.50079,3.52795 1.16693,0.875197 2.16614,1.54134 3,1.97244 0.70748,0.347244 1.59685,0.624803 2.65276,0.819685 1.05591,0.179528 1.94409,0.291732 2.63858,0.318898l0 2.88898z"/>
  <path id="12345678910" class="fil0" d="M719.621 90.4004l-24.0555 0 0 -2.88898c2.38819,-0.194882 4.20827,-0.486614 5.45787,-0.88937 1.24961,-0.415748 1.87559,-0.888189 1.87559,-1.43031 0,-0.249213 -0.0283465,-0.540945 -0.0838583,-0.888189 -0.0555118,-0.361417 -0.13937,-0.667323 -0.250394,-0.944882l-15.1382 -38.9031c-2.33386,6.05551 -4.94528,12.8197 -7.83425,20.3055 -2.88898,7.48701 -4.68071,12.3343 -5.38819,14.5287 -0.347244,1.08307 -0.597638,2.01378 -0.735827,2.76378 -0.125197,0.762992 -0.194882,1.38898 -0.194882,1.87441 0,1.00039 0.75,1.80591 2.25,2.40354 1.51417,0.596457 3.54213,0.985039 6.08268,1.17992l0 2.88898 -21.7217 0 0 -2.88898c0.708661,-0.0555118 1.58268,-0.207874 2.63858,-0.472441 1.05591,-0.249213 1.9311,-0.596457 2.61142,-1.02756 1.08307,-0.735827 1.91693,-1.5 2.51339,-2.30551 0.597638,-0.805512 1.1811,-1.90276 1.75039,-3.3189 3.23622,-8.02795 6.51378,-16.3205 9.84685,-24.8752 3.34724,-8.55591 6.41693,-16.4445 9.23622,-23.6669l3.26457 0 19.3606 49.8059c0.416929,1.02756 0.875197,1.87441 1.38898,2.54173 0.51378,0.666142 1.23661,1.30512 2.15315,1.92992 0.624803,0.388583 1.44449,0.708661 2.44488,0.959055 0.999213,0.263386 1.84724,0.402756 2.52756,0.429921l0 2.88898z"/>
  <path id="1234567891011" class="fil0" d="M801.24 90.4004l-25.5142 0 0 -2.88898c0.930709,-0.0271654 2.11063,-0.125197 3.55512,-0.291732 1.45866,-0.152362 2.45906,-0.388583 3,-0.680315 0.833858,-0.51378 1.45866,-1.11142 1.84724,-1.77756 0.388583,-0.667323 0.597638,-1.5 0.597638,-2.50039l0 -41.9858 -0.611811 0 -19.6937 49.1941 -2.04213 0 -18.75 -50.2228 -0.527953 0 0 34.4728c0,3.33307 0.207874,5.8748 0.624803,7.61102 0.416929,1.73622 1.07008,2.98583 1.9311,3.73583 0.596457,0.570472 1.83307,1.11142 3.70866,1.6252 1.86024,0.527953 3.08268,0.79252 3.65197,0.819685l0 2.88898 -23.3055 0 0 -2.88898c1.22244,-0.111024 2.50039,-0.305906 3.83386,-0.61063 1.34646,-0.291732 2.38819,-0.75 3.12402,-1.34764 0.944882,-0.75 1.59803,-1.91693 1.94528,-3.49961 0.361417,-1.56969 0.527953,-4.19528 0.527953,-7.88976l0 -29.5417c0,-1.70787 -0.194882,-3.11102 -0.611811,-4.19409 -0.402756,-1.08307 -0.98622,-1.95827 -1.74921,-2.63858 -0.833858,-0.737008 -1.86142,-1.27795 -3.08386,-1.6252 -1.22244,-0.361417 -2.43071,-0.556299 -3.6248,-0.611811l0 -2.88898 19.6949 0 16.513 43.2921 14.126 -36.2079c0.51378,-1.33346 0.957874,-2.72244 1.31929,-4.1811 0.374409,-1.44449 0.569291,-2.41654 0.596457,-2.90315l18.8339 0 0 2.88898c-0.764173,0.0283465 -1.72205,0.153543 -2.90315,0.361417 -1.17992,0.222047 -2.04094,0.416929 -2.58307,0.611811 -0.930709,0.333071 -1.55551,0.874016 -1.87441,1.62402 -0.334252,0.764173 -0.486614,1.59803 -0.486614,2.48622l0 41.6256c0,0.944882 0.152362,1.75039 0.486614,2.40236 0.318898,0.65315 0.943701,1.22244 1.87441,1.70906 0.486614,0.263386 1.34764,0.527953 2.59724,0.75 1.24961,0.23622 2.23583,0.361417 2.97283,0.388583l0 2.88898z"/>
  <path id="123456789101112" class="fil0" d="M878.302 35.5524c-0.764173,0.0283465 -1.92992,0.23622 -3.49961,0.65315 -1.56969,0.402756 -2.70827,0.819685 -3.37559,1.24961 -0.98622,0.681496 -1.63819,1.98661 -1.97126,3.91772 -0.347244,1.91575 -0.514961,4.36063 -0.514961,7.31929l0 42.2776 -3.54094 0 -34.9866 -47.2358 0 29.778c0,3.33307 0.207874,5.90197 0.624803,7.6937 0.416929,1.79173 1.07008,3.06969 1.9311,3.81969 0.624803,0.597638 1.91693,1.15276 3.86102,1.66654 1.95827,0.527953 3.25039,0.79252 3.8752,0.819685l0 2.88898 -23.6811 0 0 -2.88898c0.722835,-0.0555118 1.95827,-0.318898 3.69449,-0.791339 1.73622,-0.472441 2.81929,-0.903543 3.26339,-1.27795 0.944882,-0.764173 1.59803,-1.9311 1.94528,-3.48661 0.361417,-1.55551 0.527953,-4.22244 0.527953,-7.99961l0 -28.4303c0,-1.25079 -0.209055,-2.50039 -0.65315,-3.75 -0.431102,-1.25079 -1.01339,-2.20866 -1.75039,-2.88898 -0.972047,-0.88937 -2.29134,-1.66654 -3.95787,-2.30551 -1.66654,-0.625984 -3.01417,-0.973228 -4.05591,-1.02874l0 -2.88898 16.4858 0 32.4732 44.0291 0 -27.4724c0,-3.36142 -0.222047,-5.94449 -0.65315,-7.75039 -0.429921,-1.80591 -1.05591,-3 -1.87441,-3.59764 -0.764173,-0.51378 -2.00079,-1.01339 -3.72283,-1.51417 -1.72205,-0.485433 -3.02717,-0.75 -3.93071,-0.805512l0 -2.88898 23.4862 0 0 2.88898z"/>
  <path id="12345678910111213" class="fil0" d="M84.0413 144.846l-2.84764 0c-0.291732,-0.84685 -0.65315,-1.94409 -1.0689,-3.30591 -0.431102,-1.34646 -0.875197,-2.47205 -1.36181,-3.37441 -0.624803,-1.08307 -1.33346,-1.95827 -2.09646,-2.62559 -0.778346,-0.666142 -1.88976,-1.01339 -3.32008,-1.04055 -2.61142,-0.0566929 -4.87441,-0.0980315 -6.81969,-0.13937 -1.92992,-0.0413386 -3.80551,-0.0555118 -5.59724,-0.0555118 -2.51339,0 -4.73622,0.0271654 -6.66614,0.0826772 -1.9311,0.0555118 -3.73583,0.0838583 -5.41654,0.112205 -1.05591,0 -2.02795,0.290551 -2.9315,0.861024 -0.888189,0.569291 -1.70787,1.5 -2.42953,2.80512 -0.556299,0.972047 -1.02874,2.13898 -1.4315,3.48661 -0.402756,1.33228 -0.762992,2.40236 -1.05472,3.1937l-2.84764 0 1.09724 -17.5004 43.6949 0 1.09724 17.5004zm-10.0417 21.111l-2.84764 0c-0.193701,-0.943701 -0.429921,-1.87441 -0.721654,-2.79094 -0.27874,-0.903543 -0.611811,-1.65354 -0.98622,-2.25 -0.388583,-0.65315 -1.23661,-1.05591 -2.57008,-1.22244 -1.33346,-0.166535 -3.24921,-0.250394 -5.77795,-0.250394 -2.59724,0 -4.55551,0.0980315 -5.83346,0.264567 -1.29094,0.180709 -2.1248,0.583465 -2.49921,1.20827 -0.472441,0.75 -0.819685,1.52717 -1.04173,2.31969 -0.23622,0.777165 -0.458268,1.6937 -0.680315,2.72126l-2.84764 0 0 -19.4858 2.84764 0c0.222047,1.13858 0.444094,2.06929 0.680315,2.80512 0.222047,0.737008 0.569291,1.47283 1.04173,2.23701 0.347244,0.624803 1.17992,1.02756 2.51339,1.19409 1.33346,0.180709 3.26457,0.263386 5.81929,0.263386 2.41772,0 4.33346,-0.0826772 5.73661,-0.277559 1.41614,-0.193701 2.27835,-0.583465 2.61142,-1.17992 0.318898,-0.569291 0.624803,-1.23661 0.916535,-2.01378 0.277559,-0.778346 0.542126,-1.77874 0.791339,-3.02835l2.84764 0 0 19.4858zm11.2642 1.5l-1.90276 17.6256 -44.5146 0 -1.91693 -17.6256 2.84764 0c0.402756,1.13976 0.805512,2.25 1.19409,3.30591 0.402756,1.05591 0.959055,2.18031 1.69488,3.37559 0.651969,0.999213 1.45866,1.86024 2.4437,2.58307 0.973228,0.721654 2.08346,1.08307 3.33425,1.08307 2.02795,0.0283465 4.08307,0.0555118 6.13819,0.111024 2.06929,0.0555118 4.1811,0.0838583 6.34724,0.0838583 2.04213,0 4.05591,-0.0141732 6.06969,-0.0555118 1.99961,-0.0425197 4.26378,-0.0980315 6.75,-0.13937 1.27795,-0.0271654 2.40354,-0.374409 3.36142,-1.04173 0.957874,-0.666142 1.77756,-1.54134 2.45787,-2.62441 0.737008,-1.22244 1.31929,-2.44488 1.77874,-3.66732 0.444094,-1.22244 0.805512,-2.22165 1.0689,-3.01417l2.84764 0z"/>
  <path id="1234567891011121314" class="fil0" d="M160.095 134.179c2.54173,2.65276 4.54134,5.86063 5.97165,9.6248 1.44449,3.75 2.15315,7.91693 2.15315,12.4724 0,4.58386 -0.722835,8.75079 -2.19449,12.4866 -1.45866,3.75 -3.49961,6.93071 -6.09685,9.56929 -2.52874,2.59724 -5.45906,4.61102 -8.79213,6.01417 -3.33307,1.41614 -6.88937,2.1248 -10.6665,2.1248 -4.01457,0 -7.72205,-0.764173 -11.1248,-2.26417 -3.40276,-1.5 -6.32008,-3.59764 -8.76496,-6.29173 -2.4437,-2.62441 -4.36063,-5.81929 -5.76378,-9.58346 -1.38898,-3.75 -2.09646,-7.77756 -2.09646,-12.0555 0,-4.69488 0.735827,-8.8748 2.20748,-12.5551 1.45866,-3.6815 3.48661,-6.86102 6.05551,-9.54213 2.55591,-2.65276 5.51457,-4.69488 8.88898,-6.11102 3.37559,-1.40315 6.91772,-2.11063 10.598,-2.11063 3.83268,0 7.44449,0.721654 10.8331,2.15197 3.38858,1.44449 6.32008,3.45827 8.79213,6.06969zm-6.06969 40.9311c1.51417,-2.47205 2.62441,-5.26417 3.3189,-8.3752 0.694488,-3.1252 1.02874,-6.61181 1.02874,-10.4587 0,-3.95787 -0.375591,-7.59685 -1.15276,-10.9028 -0.778346,-3.3189 -1.90276,-6.13937 -3.40276,-8.47205 -1.48701,-2.30551 -3.36142,-4.09724 -5.61142,-5.38937 -2.25,-1.29094 -4.83307,-1.92992 -7.73622,-1.92992 -3.25039,0 -6.01417,0.75 -8.29134,2.23583 -2.27835,1.48583 -4.13976,3.48661 -5.58425,5.98583 -1.34646,2.38937 -2.36102,5.18031 -3.02717,8.3752 -0.667323,3.20906 -1.00039,6.56929 -1.00039,10.0972 0,3.90354 0.361417,7.43031 1.07008,10.5697 0.693307,3.15236 1.80472,5.94449 3.33307,8.38937 1.45748,2.38819 3.30472,4.24961 5.52756,5.59724 2.22165,1.34646 4.88858,2.01378 7.97244,2.01378 2.90315,0 5.52756,-0.680315 7.86142,-2.04213 2.33268,-1.34764 4.23543,-3.25039 5.69409,-5.69409z"/>
  <path id="123456789101112131415" class="fil0" d="M254.161 185.082l-23.9728 0 0 -2.88898c0.65315,-0.0555118 1.59803,-0.13937 2.83346,-0.250394 1.23661,-0.0968504 2.08346,-0.263386 2.54173,-0.485433 0.819685,-0.320079 1.41732,-0.819685 1.79173,-1.48583 0.375591,-0.667323 0.569291,-1.52835 0.569291,-2.58425l0 -46.389 -26.5689 0 0 45.9449c0,0.944882 0.152362,1.75039 0.458268,2.40236 0.318898,0.65315 0.930709,1.22244 1.86142,1.70906 0.458268,0.249213 1.27677,0.485433 2.45787,0.735827 1.17992,0.23622 2.11063,0.375591 2.79213,0.402756l0 2.88898 -23.9728 0 0 -2.88898c0.65315,-0.0555118 1.59685,-0.13937 2.83346,-0.250394 1.23543,-0.0968504 2.08346,-0.263386 2.54173,-0.485433 0.805512,-0.320079 1.40197,-0.819685 1.79173,-1.48583 0.374409,-0.667323 0.569291,-1.52835 0.569291,-2.58425l0 -41.6669c0,-0.861024 -0.180709,-1.65236 -0.527953,-2.3752 -0.361417,-0.721654 -0.972047,-1.27677 -1.83307,-1.6937 -0.735827,-0.347244 -1.6252,-0.667323 -2.66693,-0.930709 -1.04173,-0.277559 -1.94409,-0.431102 -2.70827,-0.486614l0 -2.88898 59.2087 0 0 2.88898c-0.764173,0.0283465 -1.69488,0.153543 -2.79213,0.361417 -1.09724,0.222047 -1.91575,0.416929 -2.45787,0.611811 -0.930709,0.333071 -1.54134,0.874016 -1.84724,1.62402 -0.320079,0.764173 -0.472441,1.59803 -0.472441,2.48622l0 41.6256c0,0.944882 0.152362,1.75039 0.472441,2.40236 0.305906,0.65315 0.916535,1.22244 1.84724,1.70906 0.458268,0.249213 1.27795,0.485433 2.45787,0.735827 1.1811,0.23622 2.11181,0.375591 2.79213,0.402756l0 2.88898z"/>
  <path id="12345678910111213141516" class="fil0" d="M325.978 141.582c0,3.01417 -0.597638,5.67992 -1.77756,7.99961 -1.1811,2.31969 -2.80512,4.23661 -4.90276,5.75079 -2.05512,1.52717 -4.31929,2.63858 -6.79134,3.34724 -2.47323,0.693307 -5.08346,1.05472 -7.84724,1.05472l-6.47244 0 0 17.5004c0,0.944882 0.152362,1.77756 0.458268,2.50039 0.318898,0.70748 0.957874,1.26378 1.94409,1.63819 0.486614,0.194882 1.34764,0.375591 2.58307,0.527953 1.23661,0.166535 2.36102,0.264567 3.38976,0.291732l0 2.88898 -24.7783 0 0 -2.88898c0.65315,-0.0555118 1.59685,-0.152362 2.83346,-0.291732 1.23543,-0.125197 2.09646,-0.305906 2.58307,-0.527953 0.805512,-0.347244 1.40315,-0.861024 1.76457,-1.54134 0.374409,-0.680315 0.555118,-1.54134 0.555118,-2.59724l0 -41.6669c0,-0.957874 -0.13937,-1.80591 -0.416929,-2.57008 -0.263386,-0.762992 -0.902362,-1.33228 -1.90276,-1.70787 -1.02756,-0.347244 -2.05512,-0.61063 -3.06969,-0.75 -1.02756,-0.152362 -1.90276,-0.250394 -2.62441,-0.305906l0 -2.88898 26.361 0c5.3752,0 9.73583,1.29213 13.0831,3.88937 3.34724,2.58307 5.02795,6.04134 5.02795,10.3476zm-12.3744 9.84685c0.929528,-1.30512 1.52717,-2.65276 1.83307,-4.04173 0.291732,-1.40315 0.444094,-2.65276 0.444094,-3.76417 0,-1.55551 -0.180709,-3.12402 -0.542126,-4.72205 -0.374409,-1.59685 -0.999213,-3 -1.90276,-4.19409 -0.943701,-1.27795 -2.19449,-2.26417 -3.73583,-2.97283 -1.54134,-0.70748 -3.47244,-1.05472 -5.77795,-1.05472l-5.73543 0 0 25.5142 4.15276 0c2.93031,0 5.30551,-0.458268 7.13858,-1.36181 1.83307,-0.916535 3.20787,-2.04094 4.12559,-3.40276z"/>
  <path id="1234567891011121314151617" class="fil0" d="M396.976 167.054l-1.91693 18.0283 -45.9862 0 0 -1.43031 23.237 -25.8756 -22.5839 -29.0138 0 -1.41732 43.5413 0 0 15.3343 -2.88898 0c-0.596457,-2.70827 -1.74921,-5.26417 -3.44409,-7.66654 -1.69488,-2.40354 -3.44409,-3.75 -5.26417,-4.04173 -0.818504,-0.13937 -1.97244,-0.250394 -3.47244,-0.305906 -1.51299,-0.069685 -2.73543,-0.111024 -3.69449,-0.111024l-12.5693 0 18.111 23.2772 0 0.65315 -21.1665 23.4307 26.5701 0c1.22244,0 2.30551,-0.361417 3.26339,-1.09724 0.944882,-0.721654 1.76457,-1.66654 2.44488,-2.80512 0.624803,-1.02756 1.17992,-2.18031 1.66654,-3.4311 0.486614,-1.26378 0.916535,-2.4437 1.29213,-3.52795l2.86063 0z"/>
  <path id="123456789101112131415161718" class="fil0" d="M468.78 143.013l-2.80512 0c-0.250394,-0.98622 -0.681496,-2.13898 -1.32047,-3.48661 -0.637795,-1.33346 -1.34646,-2.61024 -2.13898,-3.80551 -0.818504,-1.24961 -1.70787,-2.33268 -2.66575,-3.27756 -0.959055,-0.930709 -1.88976,-1.47165 -2.79213,-1.59685 -0.832677,-0.111024 -1.88858,-0.194882 -3.16654,-0.250394 -1.27795,-0.0555118 -2.45787,-0.0826772 -3.54213,-0.0826772l-2.36102 0 0 46.1799c0,0.903543 0.194882,1.72323 0.569291,2.47323 0.375591,0.735827 1.04173,1.31929 2.00079,1.72205 0.485433,0.193701 1.5,0.444094 3.06969,0.777165 1.55551,0.320079 2.76378,0.500787 3.6378,0.527953l0 2.88898 -27.2634 0 0 -2.88898c0.764173,-0.0555118 1.91693,-0.166535 3.48543,-0.318898 1.55669,-0.167717 2.62559,-0.375591 3.22323,-0.611811 0.902362,-0.361417 1.55551,-0.861024 1.98543,-1.52717 0.416929,-0.667323 0.624803,-1.55551 0.624803,-2.66693l0 -46.5555 -2.36102 0c-0.84685,0 -1.88858,0.0271654 -3.13819,0.0685039 -1.23661,0.0425197 -2.43071,0.125197 -3.56929,0.264567 -0.903543,0.111024 -1.83425,0.638976 -2.79213,1.59685 -0.957874,0.972047 -1.84724,2.0563 -2.66693,3.27756 -0.819685,1.22244 -1.52717,2.51457 -2.15315,3.88937 -0.624803,1.3748 -1.05472,2.50039 -1.30512,3.40276l-2.84764 0 0 -15.6673 50.2925 0 0 15.6673z"/>
  <path id="12345678910111213141516171819" class="fil0" d="M542.388 130.234c-0.47126,0.0283465 -1.19409,0.209055 -2.20748,0.542126 -1.00039,0.347244 -1.72205,0.680315 -2.15315,1.00039 -1.05591,0.651969 -1.77756,1.15276 -2.15315,1.51299 -0.374409,0.347244 -1.11024,1.26496 -2.19449,2.76496 -2.1248,2.98583 -4.0689,6 -5.86063,9.0685 -1.79173,3.06969 -4.02756,6.95906 -6.72283,11.6811 -0.999213,1.73622 -1.66654,3.1252 -1.98543,4.19409 -0.333071,1.05591 -0.486614,2.58425 -0.486614,4.59803l0 11.028c0,0.972047 0.194882,1.8189 0.583465,2.54173 0.388583,0.70748 1.07008,1.29094 2.01378,1.72205 0.569291,0.222047 1.58386,0.485433 3.05551,0.791339 1.45866,0.318898 2.63976,0.486614 3.54213,0.51378l0 2.88898 -27.0283 0 0 -2.88898c0.764173,-0.0555118 1.90276,-0.152362 3.4311,-0.305906 1.51417,-0.152362 2.5689,-0.347244 3.16654,-0.583465 0.972047,-0.415748 1.65236,-0.972047 2.01378,-1.67953 0.361417,-0.694488 0.555118,-1.56969 0.555118,-2.59724l0 -14.0421c0,-0.431102 -0.263386,-1.22244 -0.791339,-2.3752 -0.542126,-1.15276 -1.16693,-2.44488 -1.90276,-3.84685 -1.6252,-3.15354 -3.42992,-6.5563 -5.40236,-10.2083 -1.98661,-3.66732 -3.70866,-6.80551 -5.16732,-9.40276 -0.902362,-1.55669 -1.6937,-2.70945 -2.38819,-3.50079 -0.694488,-0.791339 -1.48701,-1.48583 -2.3752,-2.08346 -0.65315,-0.402756 -1.43031,-0.70748 -2.34803,-0.930709 -0.902362,-0.222047 -1.72205,-0.347244 -2.45787,-0.402756l0 -2.88898 24.6248 0 0 2.88898c-2.77795,0.0555118 -4.72205,0.23622 -5.86063,0.570472 -1.13858,0.318898 -1.70787,0.777165 -1.70787,1.3748 0,0.166535 0.0826772,0.458268 0.235039,0.861024 0.167717,0.402756 0.402756,0.916535 0.694488,1.54134 0.347244,0.708661 0.778346,1.51417 1.26378,2.43071 0.486614,0.902362 0.944882,1.77756 1.37598,2.62441 1.27795,2.40354 2.58307,4.82008 3.91654,7.22244 1.31929,2.38937 3.05551,5.51457 5.20866,9.37559 4.24961,-6.86102 7.5,-12.222 9.73583,-16.0559 2.23583,-3.83386 3.36142,-6.13937 3.36142,-6.90236 0,-0.611811 -0.23622,-1.12559 -0.694488,-1.5 -0.458268,-0.375591 -1.07008,-0.681496 -1.83425,-0.88937 -0.777165,-0.222047 -1.63819,-0.361417 -2.55472,-0.429921 -0.930709,-0.069685 -1.77874,-0.13937 -2.57008,-0.223228l0 -2.88898 20.0693 0 0 2.88898z"/>
  <path id="1234567891011121314151617181920" class="fil0" d="M574.594 166.277c1.38898,2.33268 3.16654,4.02756 5.33386,5.05512 2.16614,1.02756 4.65236,1.54252 7.44449,1.54252l0 -33.848 -1.70906 0c-2.47205,0 -4.58268,0.486614 -6.36024,1.45866 -1.77756,0.972047 -3.25039,2.36102 -4.41732,4.15276 -0.98622,1.54134 -1.6937,3.3189 -2.16614,5.30551 -0.458268,1.99961 -0.680315,4.01339 -0.680315,6.04134 0,1.41732 0.124016,2.97283 0.374409,4.66654 0.263386,1.69488 0.98622,3.56929 2.18031,5.62559zm33.9732 0c1.0689,-1.80591 1.76339,-3.65315 2.09646,-5.50039 0.347244,-1.86142 0.51378,-3.45827 0.51378,-4.79173 0,-1.73622 -0.23622,-3.66614 -0.694488,-5.81929 -0.458268,-2.13898 -1.17992,-3.98622 -2.15197,-5.52756 -1.02756,-1.6252 -2.43071,-2.97283 -4.19528,-4.02756 -1.76339,-1.05591 -3.95787,-1.58386 -6.58346,-1.58386l-1.70787 0 0 33.848c2.94449,0 5.50039,-0.583465 7.66654,-1.76457 2.15315,-1.17992 3.84803,-2.79213 5.0563,-4.83307zm5.01378 4.52717c-2.22283,1.73622 -4.84724,3.05551 -7.87559,3.98622 -3.02717,0.916535 -6.33307,1.37598 -9.90236,1.37598l0 1.83307c0,0.957874 0.152362,1.73622 0.458268,2.36102 0.318898,0.624803 0.957874,1.12441 1.92992,1.51417 0.500787,0.179528 1.34764,0.347244 2.55591,0.499606 1.19409,0.152362 2.31969,0.23622 3.34724,0.263386l0 2.84764 -24.4583 0 0 -2.84764c0.65315,-0.0555118 1.59685,-0.138189 2.83346,-0.263386 1.23543,-0.125197 2.09646,-0.291732 2.58307,-0.499606 0.819685,-0.361417 1.41732,-0.848031 1.79173,-1.47283 0.375591,-0.624803 0.569291,-1.41614 0.569291,-2.40236l0 -1.83307c-3.58346,0 -6.90236,-0.445276 -9.94488,-1.33346 -3.05551,-0.903543 -5.70827,-2.23701 -7.95827,-4.02874 -2.22165,-1.79173 -3.97205,-3.99921 -5.22165,-6.63898 -1.26378,-2.62441 -1.90276,-5.67992 -1.90276,-9.15236 0,-2.65276 0.458268,-5.11063 1.36063,-7.36063 0.916535,-2.25 2.40354,-4.3063 4.45866,-6.15354 1.98661,-1.76339 4.54134,-3.15236 7.69488,-4.16693 3.15236,-1.01339 6.84685,-1.52717 11.1106,-1.52717l0.402756 0 0 -1.09724c0,-0.88937 -0.152362,-1.65236 -0.472441,-2.27835 -0.304724,-0.624803 -0.943701,-1.13858 -1.88858,-1.54134 -0.791339,-0.361417 -1.69488,-0.638976 -2.74961,-0.861024 -1.04173,-0.222047 -1.95827,-0.347244 -2.73661,-0.402756l0 -2.84764 24.0839 0 0 2.84764c-0.791339,0.0283465 -1.69488,0.0968504 -2.72244,0.222047 -1.04173,0.125197 -1.94409,0.320079 -2.73661,0.583465 -0.916535,0.333071 -1.54134,0.833858 -1.88858,1.48583 -0.333071,0.667323 -0.499606,1.45866 -0.499606,2.38937l0 1.5 0.402756 0c4.26378,0 7.94409,0.499606 11.0693,1.51417 3.11102,0.999213 5.69409,2.38819 7.72205,4.17992 2.01378,1.79173 3.48661,3.84803 4.41732,6.15354 0.943701,2.30551 1.40197,4.74921 1.40197,7.36063 0,3.41693 -0.651969,6.47244 -1.97126,9.15236 -1.3063,2.6811 -3.06969,4.90276 -5.26417,6.63898z"/>
  <path id="123456789101112131415161718192021" class="fil0" d="M702.33 185.082l-27.0283 0 0 -2.88898c2.22165,-0.0555118 4.02756,-0.263386 5.38937,-0.624803 1.3748,-0.375591 2.05512,-0.930709 2.05512,-1.69488 0,-0.402756 -0.305906,-1.24961 -0.930709,-2.52756 -0.624803,-1.26378 -1.43031,-2.69409 -2.40236,-4.26378 -1.08425,-1.73622 -2.3752,-3.77835 -3.86102,-6.1252 -1.5,-2.34685 -2.97283,-4.59685 -4.44449,-6.73583 -2.3752,3.15236 -5.09764,6.93071 -8.12598,11.3752 -3.04134,4.43031 -4.5685,7.04173 -4.5685,7.83307 0,0.88937 0.415748,1.55551 1.24961,1.97244 0.819685,0.416929 2.65276,0.680315 5.47205,0.791339l0 2.88898 -21.5693 0 0 -2.88898c0.708661,-0.0555118 1.61102,-0.152362 2.70827,-0.305906 1.09724,-0.152362 1.99961,-0.402756 2.70827,-0.75 1.40315,-0.762992 2.54173,-1.58268 3.38858,-2.45787 0.861024,-0.88937 1.72205,-1.9311 2.58425,-3.1252 1.73504,-2.3752 3.97205,-5.36102 6.68031,-8.93031 2.70827,-3.5563 5.11063,-6.80551 7.19409,-9.73583 -1.56969,-2.30551 -3.56929,-5.23701 -6.01417,-8.77795 -2.4437,-3.54213 -5.04094,-7.32047 -7.8189,-11.361 -1.16693,-1.72323 -2.08346,-2.91732 -2.73661,-3.62598 -0.666142,-0.70748 -1.55551,-1.31929 -2.66693,-1.83307 -0.651969,-0.305906 -1.55551,-0.542126 -2.70827,-0.708661 -1.15276,-0.179528 -2.06929,-0.291732 -2.74961,-0.347244l0 -2.88898 26.7366 0 0 2.88898c-1.56969,0.0555118 -3.20906,0.250394 -4.90276,0.583465 -1.69488,0.347244 -2.54173,0.861024 -2.54173,1.56969 0,0.51378 0.333071,1.41732 1.01339,2.70827 0.680315,1.29213 1.47283,2.66693 2.40236,4.12559 0.944882,1.52717 2.00079,3.20787 3.16772,5.05512 1.16575,1.83307 2.59724,3.97205 4.27795,6.37559 3.0685,-4.13976 5.70827,-7.88976 7.92992,-11.2228 2.22283,-3.33307 3.34724,-5.51339 3.34724,-6.51378 0,-0.861024 -0.51378,-1.5 -1.52717,-1.91693 -1.02874,-0.402756 -2.73661,-0.65315 -5.15315,-0.764173l0 -2.88898 21.528 0 0 2.88898c-0.680315,0.0283465 -1.56969,0.125197 -2.66693,0.305906 -1.09724,0.166535 -2.01378,0.431102 -2.74961,0.75 -1.40315,0.680315 -2.45906,1.41732 -3.15354,2.19449 -0.694488,0.791339 -1.6252,1.9311 -2.79094,3.41693 -2.16732,2.79094 -4.16693,5.41654 -6,7.87441 -1.82008,2.45906 -4.02874,5.44488 -6.61181,8.97283 2.18031,3.09685 4.59803,6.61063 7.26378,10.5413 2.6811,3.93071 5.23701,7.69488 7.66654,11.2642 0.848031,1.22244 1.80591,2.38937 2.88898,3.48661 1.09724,1.09724 1.97244,1.84724 2.65276,2.26299 0.65315,0.375591 1.52835,0.611811 2.62559,0.708661 1.09724,0.0980315 2.02795,0.153543 2.79213,0.180709l0 2.88898z"/>
  <path id="12345678910111213141516171819202122" class="fil0" d="M793.299 130.234c-0.624803,0.0555118 -1.43031,0.153543 -2.43071,0.305906 -1.01339,0.13937 -1.9311,0.375591 -2.77795,0.667323 -1.00039,0.347244 -1.63937,0.916535 -1.90276,1.70787 -0.277559,0.791339 -0.416929,1.58386 -0.416929,2.40236l0 11.9173c0,3.41693 -0.555118,6.36142 -1.66654,8.81929 -1.11142,2.44488 -2.69409,4.44449 -4.76339,6 -2.02795,1.54134 -4.47283,2.70827 -7.31929,3.47244 -2.84764,0.777165 -6.01417,1.22244 -9.51496,1.31929l0 9.77835c0,0.972047 0.194882,1.8189 0.583465,2.54173 0.389764,0.70748 1.07008,1.29094 2.01378,1.72205 0.458268,0.222047 1.47283,0.485433 3.01417,0.791339 1.54134,0.318898 2.66693,0.486614 3.37559,0.51378l0 2.88898 -26.6114 0 0 -2.88898c0.735827,-0.0555118 1.83307,-0.152362 3.29173,-0.305906 1.47165,-0.152362 2.49921,-0.347244 3.09685,-0.583465 0.972047,-0.415748 1.65236,-0.972047 2.01378,-1.67953 0.361417,-0.694488 0.556299,-1.56969 0.556299,-2.59724l0 -10.1811c-3.47244,-0.0968504 -6.62598,-0.527953 -9.44528,-1.27795 -2.81929,-0.75 -5.27717,-1.90276 -7.36063,-3.47244 -2.06929,-1.61102 -3.66732,-3.59646 -4.79173,-5.98583 -1.12559,-2.38937 -1.68071,-5.34685 -1.68071,-8.8748l0 -11.5146c0,-0.943701 -0.152362,-1.73622 -0.472441,-2.3752 -0.305906,-0.637795 -0.944882,-1.22126 -1.88858,-1.77756 -0.735827,-0.402756 -1.6252,-0.70748 -2.66693,-0.930709 -1.04173,-0.222047 -1.87441,-0.347244 -2.50039,-0.402756l0 -2.88898 16.2366 0 0 20.6256c0,2.06929 0.194882,3.93071 0.583465,5.61142 0.388583,1.6937 1.16693,3.29173 2.30551,4.80591 1.08307,1.41614 2.58307,2.5689 4.48583,3.48543 1.91693,0.903543 4.31929,1.43031 7.19528,1.55551l0 -27.7087c0,-0.861024 -0.180709,-1.65236 -0.514961,-2.3752 -0.346063,-0.721654 -0.943701,-1.27677 -1.80472,-1.6937 -0.735827,-0.347244 -1.59803,-0.667323 -2.58307,-0.930709 -1.00039,-0.277559 -1.87559,-0.431102 -2.62559,-0.486614l0 -2.88898 23.5559 0 0 2.88898c-0.791339,0.0283465 -1.69488,0.153543 -2.72244,0.361417 -1.04173,0.222047 -1.8189,0.416929 -2.36102,0.611811 -0.930709,0.333071 -1.54134,0.861024 -1.83307,1.58268 -0.305906,0.735827 -0.445276,1.58386 -0.445276,2.52756l0 28.1114c2.97283,-0.180709 5.40354,-0.721654 7.27795,-1.59685 1.87559,-0.88937 3.34724,-2.04213 4.4315,-3.48661 1.04055,-1.34646 1.76339,-2.91614 2.20748,-4.6937 0.431102,-1.77874 0.638976,-3.66732 0.638976,-5.6811l0 -20.6256 16.2366 0 0 2.88898z"/>
  <path id="1234567891011121314151617181920212223" class="fil0" d="M877.811 169.291l-2.8063 15.7913 -24.013 0 0 -2.76378c1.65236,-2.36102 3.29173,-4.73622 4.90276,-7.12559 1.61102,-2.38819 2.93031,-4.65236 3.92953,-6.79134 1.13976,-2.41654 2.00079,-4.73622 2.57008,-6.95787 0.569291,-2.22283 0.84685,-4.94528 0.84685,-8.13898 0,-2.25 -0.23622,-4.86142 -0.70748,-7.83425 -0.472441,-2.97165 -1.27795,-5.54173 -2.38937,-7.70787 -1.51417,-2.8748 -3.41693,-4.95827 -5.69409,-6.25039 -2.27835,-1.29094 -4.88976,-1.92992 -7.84724,-1.92992 -2.95866,0 -5.59724,0.680315 -7.90276,2.02795 -2.30669,1.36063 -4.15394,3.41575 -5.57008,6.1937 -1.11142,2.13898 -1.91693,4.59803 -2.40236,7.3748 -0.486614,2.79213 -0.722835,5.48622 -0.722835,8.12598 0,2.98583 0.291732,5.69409 0.88937,8.11063 0.596457,2.43071 1.44449,4.79173 2.5689,7.07008 1.05591,2.25 2.40354,4.58268 4.04173,6.99921 1.63937,2.40354 3.22205,4.68071 4.73622,6.83386l0 2.76378 -24.1252 0 -2.80512 -15.7913 2.80512 0c0.431102,1.05472 0.833858,2.02795 1.19528,2.91614 0.374409,0.875197 0.861024,1.79173 1.48583,2.73661 0.569291,0.902362 1.20827,1.6252 1.91693,2.16614 0.70748,0.542126 1.59685,0.805512 2.67992,0.805512l9.36142 0 0 -1.33346c-1.76457,-1.98543 -3.65315,-4.20827 -5.69409,-6.65197 -2.02795,-2.45906 -3.61181,-4.59803 -4.72323,-6.41693 -1.27677,-2.0563 -2.27717,-4.33346 -3.02717,-6.80551 -0.75,-2.48622 -1.12559,-5.13898 -1.12559,-7.95827 0,-3.1252 0.638976,-6.01417 1.91693,-8.69528 1.27795,-2.66693 3.11102,-5.08346 5.50039,-7.26378 2.27717,-2.05512 5.05512,-3.70866 8.36102,-4.95827 3.29173,-1.24961 6.83386,-1.87441 10.6394,-1.87441 3.95787,0 7.5685,0.637795 10.8472,1.88858 3.26339,1.26378 6.05551,2.94449 8.36102,5.02795 2.30551,2.1248 4.08307,4.54134 5.34685,7.26378 1.26378,2.72244 1.88858,5.59724 1.88858,8.61142 0,2.81929 -0.347244,5.4437 -1.05472,7.87441 -0.708661,2.41654 -1.72205,4.73622 -3.05551,6.93071 -1.34764,2.19449 -2.97283,4.41732 -4.86142,6.63898 -1.88858,2.22165 -3.75,4.34764 -5.59724,6.38858l0 1.33346 9.23622 0c1.01339,0 1.88858,-0.277559 2.65276,-0.832677 0.75,-0.556299 1.40315,-1.26378 1.94409,-2.13898 0.624803,-0.972047 1.12559,-1.90276 1.51417,-2.8063 0.374409,-0.888189 0.764173,-1.83307 1.17992,-2.84646l2.8063 0z"/>
  <path id="123456789101112131415161718192021222324" class="fil0" d="M82.2213 278.986c-1.38898,0.486614 -2.84646,0.88937 -4.36063,1.1811 -1.51417,0.305906 -2.70827,0.458268 -3.58346,0.458268 -2.27835,0 -4.00039,-0.666142 -5.16614,-1.98661 -1.16693,-1.30512 -1.97244,-3.66614 -2.44488,-7.05472 -0.694488,1.16693 -1.55551,2.3752 -2.58307,3.59646 -1.01457,1.23661 -2.06929,2.23701 -3.19488,3 -1.26378,0.88937 -2.55591,1.58386 -3.86102,2.0563 -1.30512,0.472441 -2.8748,0.708661 -4.72205,0.708661 -2.25,0 -4.41732,-0.500787 -6.48661,-1.5 -2.06929,-1.01457 -3.91654,-2.44488 -5.51339,-4.32047 -1.59803,-1.87441 -2.86181,-4.12441 -3.77835,-6.75 -0.930709,-2.63858 -1.38898,-5.54173 -1.38898,-8.70827 0,-2.90197 0.486614,-5.66693 1.45866,-8.26417 0.98622,-2.61024 2.34685,-4.90276 4.11142,-6.87402 1.68071,-1.87559 3.68031,-3.33425 6,-4.40315 2.31969,-1.05591 4.73622,-1.58386 7.22244,-1.58386 3.23622,0 5.97165,0.778346 8.22165,2.34803 2.25,1.55551 3.91654,3.73583 4.97244,6.52795l1.01339 -7.77874 7.56969 0c-0.193701,1.9311 -0.61063,4.80591 -1.24961,8.62559 -0.624803,3.83268 -1.3748,8.01378 -2.20866,12.5421 0.0838583,3.98504 0.527953,7.31929 1.36181,9.98504 0.832677,2.66693 1.88858,4.38898 3.1937,5.15315 0.402756,0.23622 1.1811,0.375591 2.31969,0.402756 1.13858,0.0283465 2.16614,0.0413386 3.09685,0.0413386l0 2.59724zm-16.3193 -20.4992c-0.193701,-1.98661 -0.499606,-3.98622 -0.943701,-6.02835 -0.431102,-2.02795 -1.08425,-3.83268 -1.94528,-5.40236 -0.84685,-1.61102 -1.92992,-2.90315 -3.27756,-3.88937 -1.34764,-1.00039 -3,-1.48583 -4.98661,-1.48583 -3.1937,0 -5.84646,1.63937 -7.95827,4.91693 -2.09646,3.29173 -3.15236,7.80472 -3.15236,13.5555 0,2.19449 0.23622,4.27795 0.694488,6.25039 0.458268,1.95827 1.11142,3.66614 1.95827,5.09646 0.88937,1.52835 2.06929,2.75079 3.51378,3.68031 1.45866,0.944882 3.18071,1.40315 5.19449,1.40315 3.30591,0 5.8748,-1.47165 7.72205,-4.44449 1.84724,-2.97165 2.90315,-7.52717 3.18071,-13.6524z"/>
  <path id="12345678910111213141516171819202122232425" class="fil0" d="M145.419 247.375c1.70787,1.54252 3,3.41693 3.88937,5.59724 0.875197,2.18031 1.31929,4.58386 1.31929,7.22244 0,5.77795 -1.80591,10.6394 -5.43071,14.6114 -3.6248,3.95787 -8.22283,5.93031 -13.8201,5.93031 -2.36102,0 -4.34646,-0.277559 -5.95748,-0.84685 -1.61102,-0.569291 -2.88898,-1.19409 -3.84803,-1.87559l-0.318898 0 0 19.8201 -7.61102 0 0 -58.9169c0,-4.07008 0.304724,-7.3063 0.916535,-9.69449 0.61063,-2.38937 2.05512,-4.77756 4.33346,-7.19528 1.48583,-1.59685 3.37441,-2.8878 5.65276,-3.87402 2.27717,-0.973228 4.84724,-1.45866 7.6937,-1.45866 2.11181,0 4.12559,0.263386 6.01417,0.777165 1.90276,0.51378 3.59764,1.32047 5.09764,2.43071 1.48583,1.09724 2.65276,2.45906 3.49961,4.09724 0.833858,1.63937 1.25079,3.63898 1.25079,6 0,2.16732 -0.402756,4.05591 -1.22244,5.65276 -0.805512,1.59803 -1.79173,2.88898 -2.95866,3.8752 -1.13858,1.00039 -2.43071,1.79173 -3.8752,2.38937 -1.43031,0.596457 -2.73543,0.972047 -3.90236,1.09724l0.166535 0.374409c1.24961,0.0838583 2.73661,0.458268 4.45866,1.11142 1.72205,0.667323 3.26339,1.6252 4.65236,2.8748zm-3.29173 12.9862c0,-1.90276 -0.166535,-3.81969 -0.472441,-5.74961 -0.304724,-1.91693 -0.84685,-3.51378 -1.61102,-4.79173 -0.805512,-1.33346 -1.91693,-2.3752 -3.30591,-3.13937 -1.40197,-0.762992 -3.1937,-1.13858 -5.40236,-1.13858l-3.81969 0 0 -3.86102 2.76378 0c1.19528,0 2.43071,-0.207874 3.72283,-0.638976 1.29213,-0.416929 2.40236,-1.05591 3.3189,-1.9311 1.05591,-0.972047 1.88976,-2.1248 2.48622,-3.45827 0.597638,-1.31929 0.88937,-3.11102 0.88937,-5.3752 0,-3.36024 -0.805512,-5.94331 -2.44488,-7.76339 -1.6252,-1.8189 -3.75,-2.72244 -6.38858,-2.72244 -1.56969,0 -2.95866,0.250394 -4.16693,0.764173 -1.20827,0.51378 -2.31969,1.47165 -3.36142,2.84764 -0.943701,1.27677 -1.6937,3.04134 -2.25,5.29134 -0.555118,2.25 -0.832677,4.91693 -0.832677,7.97244l0 34.5969c0.569291,1.73622 1.72205,3.25039 3.45827,4.55551 1.73622,1.3063 3.72165,1.94528 5.97165,1.94528 3.47244,0 6.25039,-1.54252 8.33386,-4.65354 2.06929,-3.11102 3.11102,-7.36063 3.11102,-12.75z"/>
  <path id="1234567891011121314151617181920212223242526" class="fil0" d="M204.726 288.917c0,2.07047 -0.125197,3.69449 -0.375591,4.90276 -0.23622,1.20945 -0.569291,2.09764 -0.972047,2.66693 -0.402756,0.569291 -0.861024,0.930709 -1.36063,1.09724 -0.500787,0.166535 -1.08425,0.250394 -1.73622,0.250394 -1.3748,0 -2.43071,-0.444094 -3.15354,-1.31929 -0.721654,-0.88937 -1.08307,-2.20866 -1.08307,-3.97205 0,-1.90276 0.180709,-3.98622 0.51378,-6.26457 0.347244,-2.27717 0.833858,-4.65236 1.48583,-7.12441 -2.08228,-6.23622 -4.12441,-11.6398 -6.09685,-16.2094 -1.98543,-4.58268 -4.3748,-10.0417 -7.16693,-16.389 -0.624803,-1.3748 -1.48583,-2.34685 -2.61024,-2.90197 -1.11142,-0.556299 -2.54173,-0.875197 -4.3063,-0.959055l0 -2.63858 12.0839 -0.902362 0.569291 0.569291c0.735827,1.90276 1.72205,4.23543 2.97165,7.02756 1.25079,2.77795 2.54173,5.79213 3.86102,9.04134 1.02874,2.50039 2.09764,5.41772 3.19488,8.75079 1.09724,3.34724 1.75039,5.93031 1.9311,7.77756 0.902362,-2.36102 1.98543,-4.79173 3.26339,-7.29213 1.27795,-2.48622 2.22283,-4.47165 2.84764,-5.93031 0.680315,-1.61102 1.16693,-2.90315 1.48583,-3.91654 0.305906,-1.00039 0.458268,-1.91693 0.458268,-2.76378 0,-1.6252 -0.194882,-3.29173 -0.597638,-4.99961 -0.415748,-1.70906 -0.61063,-3.1122 -0.61063,-4.19528 0,-1.19409 0.444094,-2.26417 1.33346,-3.23622 0.902362,-0.957874 2.05512,-1.44449 3.45827,-1.44449 1.44449,0 2.58307,0.416929 3.41693,1.22244 0.84685,0.819685 1.26378,1.99961 1.26378,3.54213 0,1.70787 -0.416929,3.54094 -1.23661,5.48622 -0.832677,1.95827 -1.79173,4.01339 -2.8748,6.15236 -1.6252,3.22205 -3.52795,6.81969 -5.70827,10.7776 -2.19449,3.95906 -4.01339,7.9311 -5.47205,11.889 0.263386,2.41654 0.540945,4.59803 0.805512,6.54213 0.277559,1.95827 0.416929,3.54213 0.416929,4.76339z"/>
  <path id="123456789101112131415161718192021222324252627" class="fil0" d="M287.854 260.153c0,2.93031 -0.486614,5.67992 -1.45866,8.23583 -0.972047,2.57008 -2.30551,4.73622 -3.98622,6.52795 -1.76339,1.9311 -3.80551,3.41693 -6.1252,4.48583 -2.31969,1.05591 -4.98543,1.58386 -7.99961,1.58386 -2.8748,0 -5.54173,-0.527953 -7.98661,-1.58386 -2.45787,-1.0689 -4.54134,-2.51339 -6.24921,-4.36063 -1.70906,-1.84724 -3.02835,-4.02756 -3.97323,-6.5563 -0.930709,-2.51339 -1.40197,-5.22165 -1.40197,-8.1248 0,-2.93031 0.444094,-5.48622 1.31929,-7.68071 0.888189,-2.18031 2.1248,-4.13858 3.72165,-5.8748 1.55551,-1.68071 3.40276,-3.04134 5.55591,-4.0689 2.16614,-1.02874 4.43031,-1.73622 6.81969,-2.11181l0 -0.249213c-4.77756,-1.73622 -8.25,-3.5563 -10.4173,-5.45906 -2.16614,-1.88858 -3.24921,-4.31929 -3.24921,-7.27795 0,-1.22244 0.304724,-2.45787 0.916535,-3.72165 0.596457,-1.26378 1.59685,-2.44488 2.98583,-3.5563 1.33346,-1.0689 3.11102,-1.94409 5.33386,-2.62441 2.22165,-0.694488 4.86024,-1.04173 7.92992,-1.04173 4.66654,0 8.38937,0.832677 11.1945,2.48622 2.79213,1.65236 4.1811,3.83268 4.1811,6.54094 0,1.52835 -0.320079,2.76496 -0.972047,3.70866 -0.65315,0.944882 -1.70906,1.43031 -3.16654,1.43031 -1.63937,0 -2.86181,-0.388583 -3.66732,-1.15276 -0.819685,-0.75 -1.22244,-1.62402 -1.22244,-2.59724 0,-1.13858 0.125197,-2.22165 0.388583,-3.23622 0.250394,-1.01339 0.445276,-1.83307 0.542126,-2.45787 -0.51378,-0.402756 -1.3748,-0.791339 -2.59724,-1.13858 -1.22244,-0.361417 -2.73543,-0.527953 -4.55551,-0.527953 -2.61142,0 -4.79173,0.735827 -6.56929,2.20866 -1.77756,1.48583 -2.66693,3.22205 -2.66693,5.23583 0,2.22165 0.916535,4.09724 2.73661,5.61142 1.83307,1.52717 5.22165,3.61063 10.1528,6.26339 2.83346,1.52835 5.19449,3.06969 7.12441,4.63937 1.9311,1.58268 3.4311,3.20787 4.51417,4.88858 1.08307,1.70787 1.83307,3.48661 2.23583,5.33386 0.416929,1.83307 0.611811,3.91654 0.611811,6.22205zm-8.45906 0.318898c0,-4.73622 -0.861024,-8.5689 -2.5689,-11.472 -1.70906,-2.90315 -4.29213,-4.88858 -7.76457,-5.98583 -3.49961,0 -6.36024,1.55551 -8.58307,4.66654 -2.22165,3.11102 -3.34724,7.3748 -3.34724,12.7913 0,2.38937 0.23622,4.61102 0.694488,6.6815 0.458268,2.05512 1.16693,3.90236 2.1248,5.52756 0.88937,1.58268 2.04213,2.83346 3.4311,3.79134 1.40197,0.944882 3,1.41614 4.8189,1.41614 1.84724,0 3.48661,-0.458268 4.90276,-1.3748 1.4315,-0.930709 2.61142,-2.20748 3.56929,-3.83268 0.917717,-1.65354 1.59803,-3.51378 2.0563,-5.57008 0.444094,-2.06929 0.666142,-4.27795 0.666142,-6.63898z"/>
  <path id="12345678910111213141516171819202122232425262728" class="fil0" d="M353.62 269.515c-1.84724,3.8185 -4.29094,6.68031 -7.34646,8.58307 -3.05669,1.90276 -6.44528,2.84764 -10.1953,2.84764 -2.19449,0 -4.31929,-0.223228 -6.36142,-0.667323 -2.05512,-0.458268 -3.90236,-1.17992 -5.55472,-2.18031 -1.6252,-0.972047 -2.9315,-2.22283 -3.90354,-3.75 -0.98622,-1.51417 -1.47165,-3.27756 -1.47165,-5.29134 0,-1.80591 0.347244,-3.34724 1.05591,-4.6122 0.70748,-1.26378 1.63819,-2.33268 2.80512,-3.23504 1.11142,-0.819685 2.33268,-1.41732 3.66614,-1.79173 1.33346,-0.375591 2.65276,-0.611811 3.98622,-0.694488l0 -0.402756c-2.02795,-0.347244 -3.72165,-0.875197 -5.08346,-1.58386 -1.36063,-0.708661 -2.40236,-1.48583 -3.13819,-2.31969 -0.722835,-0.875197 -1.22244,-1.77756 -1.5,-2.72244 -0.277559,-0.957874 -0.402756,-1.88858 -0.402756,-2.81929 0,-1.05472 0.23622,-2.13898 0.721654,-3.26339 0.500787,-1.13858 1.41732,-2.26417 2.77795,-3.40276 1.22244,-1.05591 2.88898,-1.9311 4.99961,-2.62559 2.11181,-0.694488 4.63937,-1.04173 7.56969,-1.04173 4.69488,0 8.33386,0.848031 10.9028,2.54173 2.58425,1.69488 3.86102,3.98622 3.86102,6.86102 0,1.3063 -0.290551,2.45906 -0.888189,3.47244 -0.597638,1.02756 -1.63937,1.52835 -3.13937,1.52835 -1.59685,0 -2.81929,-0.389764 -3.68031,-1.15276 -0.84685,-0.778346 -1.27795,-1.65354 -1.27795,-2.62559 0,-0.999213 0.0968504,-1.97244 0.277559,-2.88898 0.194882,-0.930709 0.375591,-1.88858 0.542126,-2.88898 -0.555118,-0.458268 -1.44449,-0.875197 -2.69409,-1.22244 -1.25079,-0.346063 -2.51457,-0.526772 -3.81969,-0.526772 -2.47205,0 -4.41732,0.70748 -5.81929,2.13898 -1.41732,1.41614 -2.11181,3.09685 -2.11181,5.01378 0,2.88898 0.65315,4.95827 1.97244,6.23622 1.30512,1.27677 3.54213,1.90276 6.69449,1.90276l3.37559 0 0 3.79134 -4.40315 0c-1.82008,0 -3.30591,0.23622 -4.45866,0.694488 -1.15276,0.458268 -2.05512,1.05591 -2.73543,1.79173 -0.65315,0.721654 -1.09724,1.55551 -1.34764,2.50039 -0.250394,0.929528 -0.361417,1.87441 -0.361417,2.81929 0,2.72244 0.930709,4.76339 2.8063,6.15236 1.87441,1.3748 4.27677,2.06929 7.23543,2.06929 3.04134,0 5.63858,-0.708661 7.77756,-2.11063 2.13898,-1.41732 4.08425,-3.70866 5.82047,-6.8752l2.84646 1.75039z"/>
  <path id="1234567891011121314151617181920212223242526272829" class="fil0" d="M415.442 224.708c-3.47244,2.44488 -6.65315,4.97244 -9.55512,7.56969 -2.90315,2.61142 -5.55591,5.4437 -7.94528,8.50039 -2.27717,2.95748 -4.09724,6.12402 -5.47205,9.49961 -1.36063,3.38858 -2.05512,6.86102 -2.05512,10.4445 0,2.16614 0.277559,4.01339 0.832677,5.55591 0.556299,1.52717 1.34764,2.77795 2.34803,3.76299 0.999213,0.944882 2.15197,1.63937 3.45827,2.07047 1.30512,0.429921 2.69409,0.680315 4.19409,0.735827 0.569291,0 1.12441,0.0271654 1.68071,0.0826772 0.555118,0.0555118 1.0689,0.0838583 1.52717,0.0838583 3.36142,0.0838583 5.90315,1.02756 7.61102,2.86063 1.70906,1.83425 2.55591,4.26496 2.55591,7.3063 0,3.30591 -1.38898,6.34724 -4.17992,9.09685 -2.79213,2.75079 -6.23622,4.12559 -10.3335,4.12559 -2.84764,0 -4.87559,-0.347244 -6.06969,-1.02874 -1.19409,-0.693307 -1.79173,-1.70787 -1.79173,-3.04134 0,-1.08307 0.333071,-1.94409 1.00039,-2.59724 0.666142,-0.651969 1.65236,-0.98622 2.94449,-0.98622 0.762992,0 1.44449,0.153543 2.05512,0.458268 0.61063,0.291732 1.15276,0.638976 1.61102,1.01457 0.431102,0.318898 0.957874,0.75 1.56969,1.26378 0.61063,0.51378 1.17992,0.902362 1.72205,1.17992 0.65315,-0.0555118 1.36063,-0.207874 2.13898,-0.47126 0.777165,-0.264567 1.51417,-0.694488 2.22165,-1.32047 0.737008,-0.624803 1.32047,-1.34646 1.75039,-2.18031 0.431102,-0.819685 0.65315,-1.94409 0.65315,-3.36142 0,-1.94409 -0.583465,-3.37441 -1.75039,-4.29094 -1.16693,-0.902362 -3,-1.41732 -5.50039,-1.52835 -0.832677,-0.0271654 -1.47165,-0.0413386 -1.91575,-0.0685039 -0.431102,-0.0283465 -1.15276,-0.0566929 -2.15315,-0.0838583 -4.69488,-0.13937 -8.54173,-1.72205 -11.5276,-4.76339 -3,-3.04252 -4.5,-6.94488 -4.5,-11.7224 0,-3.33425 0.596457,-6.5563 1.80472,-9.6815 1.20827,-3.12402 2.95866,-6.23622 5.23701,-9.36024 2.13898,-2.9315 4.72205,-5.84764 7.72205,-8.76496 3.01417,-2.91614 6.47244,-6.01299 10.3748,-9.30472l0 -0.445276 -14.9728 0.167717c-2.73543,0.0271654 -4.73504,-0.389764 -5.97165,-1.22244 -1.24961,-0.848031 -1.87559,-1.9311 -1.87559,-3.25039 0,-1.0689 0.291732,-1.98661 0.88937,-2.77795 0.597638,-0.777165 1.56969,-1.17992 2.88898,-1.17992 1.33346,0 2.43071,0.249213 3.27756,0.735827 0.861024,0.485433 1.65354,1.02756 2.38937,1.6252 0.805512,0.651969 1.52717,1.20827 2.15197,1.65236 0.625984,0.444094 1.6122,0.667323 2.97283,0.667323 2.93031,0 5.6811,-0.0838583 8.25,-0.264567 2.58307,-0.166535 5.16614,-0.347244 7.73622,-0.499606l0 3.73583z"/>
  <path id="123456789101112131415161718192021222324252627282930" class="fil0" d="M478.111 297.834l-7.59685 0 0 -45.5421c0,-2.8748 -0.708661,-5.06929 -2.12598,-6.61063 -1.40197,-1.52835 -3.11102,-2.29252 -5.1248,-2.29252 -1.24961,0 -2.4437,0.209055 -3.59646,0.611811 -1.15276,0.402756 -2.25,0.98622 -3.27874,1.74921 -0.861024,0.597638 -1.5685,1.23661 -2.09646,1.9311 -0.527953,0.694488 -0.944882,1.27795 -1.23661,1.76339l0 30.3201 -7.56969 0 0 -31.611c0,-0.930709 -0.180709,-1.76457 -0.555118,-2.52756 -0.361417,-0.764173 -0.930709,-1.40315 -1.68071,-1.91693 -0.486614,-0.320079 -1.09724,-0.556299 -1.8189,-0.708661 -0.708661,-0.152362 -1.48701,-0.250394 -2.29252,-0.305906l0 -2.63858 13.3476 -0.902362 0.569291 0.569291 0 5.65276 0.194882 0c0.624803,-0.638976 1.44449,-1.43031 2.4437,-2.33386 1.00039,-0.902362 1.94528,-1.65236 2.8063,-2.22165 1.01339,-0.65315 2.19449,-1.19409 3.56929,-1.6252 1.36063,-0.431102 2.8748,-0.65315 4.52717,-0.65315 3.8622,0 6.73701,1.20827 8.65276,3.59764 1.91693,2.40236 2.86181,5.59724 2.86181,9.58346l0 46.1114z"/>
  <path id="12345678910111213141516171819202122232425262728293031" class="fil0" d="M548.073 227.431c1.44449,3.01417 2.49921,6.26339 3.18071,9.75 0.680315,3.48543 1.01339,7.36063 1.01339,11.6114 0,3.97205 -0.347244,7.80472 -1.04173,11.4992 -0.680315,3.70866 -1.75039,7.02874 -3.19488,9.94488 -1.65236,3.37559 -3.75,6 -6.27756,7.90276 -2.54173,1.90276 -5.5689,2.84764 -9.09685,2.84764 -3.5563,0 -6.61181,-0.959055 -9.15354,-2.88898 -2.55472,-1.9311 -4.61102,-4.54134 -6.17953,-7.86142 -1.50118,-3.08268 -2.58425,-6.34724 -3.23622,-9.77717 -0.667323,-3.4311 -1.00039,-7.3063 -1.00039,-11.6256 0,-4.36063 0.305906,-8.20866 0.930709,-11.5559 0.624803,-3.33307 1.6937,-6.61063 3.22205,-9.84685 1.54134,-3.25039 3.61063,-5.84764 6.22205,-7.80591 2.59724,-1.95827 5.6811,-2.93031 9.23622,-2.93031 3.58346,0 6.63898,0.972047 9.19488,2.93031 2.55472,1.95827 4.61102,4.55551 6.18071,7.80591zm-4.1811 18.4724c-0.0271654,-4.79173 -0.333071,-8.86181 -0.916535,-12.1949 -0.583465,-3.34724 -1.38898,-6.04134 -2.43071,-8.09764 -1.00039,-2.06929 -2.18031,-3.55512 -3.54213,-4.45748 -1.34646,-0.917717 -2.80512,-1.36181 -4.34646,-1.36181 -1.59803,0 -3.05551,0.431102 -4.34764,1.29213 -1.30512,0.875197 -2.48622,2.36102 -3.54094,4.48583 -1.01457,2.02795 -1.80591,4.72205 -2.38937,8.06929 -0.583465,3.34724 -0.88937,7.44449 -0.916535,12.2646l22.4303 0zm-3.30591 26.1248c1.04173,-2.16614 1.84724,-4.90276 2.43071,-8.20866 0.583465,-3.3189 0.875197,-7.59685 0.875197,-12.861l0 -1.43031 -22.4303 0 0 1.43031c0,5.18031 0.291732,9.45827 0.861024,12.861 0.569291,3.38976 1.36063,6.13937 2.36102,8.25 0.944882,2.01378 2.11063,3.48661 3.47244,4.41732 1.3748,0.943701 2.8748,1.40197 4.5,1.40197 1.54134,0 3.01417,-0.444094 4.38898,-1.36063 1.38898,-0.902362 2.5689,-2.40236 3.54094,-4.5z"/>
  <path id="1234567891011121314151617181920212223242526272829303132" class="fil0" d="M604.811 279.07c-1.27795,0.431102 -2.51339,0.805512 -3.72165,1.09724 -1.20827,0.305906 -2.76378,0.458268 -4.66654,0.458268 -2.48622,0 -4.38898,-0.764173 -5.70827,-2.29134 -1.32047,-1.51417 -1.97244,-3.68031 -1.97244,-6.50079l0.0826772 -23.7638c0,-0.902362 -0.193701,-1.6937 -0.555118,-2.40236 -0.361417,-0.708661 -0.88937,-1.3063 -1.56969,-1.79173 -0.51378,-0.320079 -1.26378,-0.583465 -2.23583,-0.791339 -0.972047,-0.209055 -1.87559,-0.334252 -2.6811,-0.389764l0 -2.63858 14.0008 -0.902362 0.569291 0.569291 0 31.5413c0,1.73622 0.51378,3.05551 1.55551,3.95906 1.05591,0.916535 2.47205,1.36063 4.26378,1.36063 0.402756,0 0.833858,0 1.29213,-0.0271654 0.458268,-0.0283465 0.916535,-0.0555118 1.34646,-0.0838583l0 2.59724z"/>
  <path id="123456789101112131415161718192021222324252627282930313233" class="fil0" d="M675.203 278.542c-1.56969,0.624803 -3.08386,1.11142 -4.55551,1.47283 -1.45866,0.347244 -2.90315,0.527953 -4.3063,0.527953 -0.902362,0 -1.6937,-0.0425197 -2.40236,-0.112205 -0.708661,-0.0685039 -1.44449,-0.318898 -2.19449,-0.75 -0.708661,-0.374409 -1.43031,-0.985039 -2.16614,-1.83307 -0.722835,-0.832677 -1.48701,-1.95827 -2.27835,-3.37441 -1.29213,-2.33386 -2.66693,-4.86142 -4.08307,-7.58386 -1.43031,-2.73543 -2.6811,-5.06929 -3.76417,-7.02756l-3.98622 4.44449 0 15.4583 -7.56969 0 0 -31.611c0,-0.930709 -0.193701,-1.77756 -0.596457,-2.54173 -0.389764,-0.778346 -0.930709,-1.41732 -1.63937,-1.90276 -0.51378,-0.320079 -1.12559,-0.556299 -1.83307,-0.708661 -0.708661,-0.152362 -1.47283,-0.250394 -2.27835,-0.305906l0 -2.63858 13.3476 -0.902362 0.569291 0.569291 0 20.5559c2.16732,-2.72244 4.47283,-5.57008 6.88937,-8.55591 2.43071,-2.97283 4.68071,-5.61142 6.73583,-7.88858 1.65236,-1.84724 3.04134,-3.11102 4.13858,-3.77835 1.09724,-0.680315 2.31969,-1.02756 3.68031,-1.02756 1.48701,0 2.6811,0.472441 3.58346,1.38898 0.88937,0.916535 1.33346,2.15315 1.33346,3.70866 0,1.13858 -0.429921,2.1378 -1.27795,3.02717 -0.861024,0.875197 -1.97126,1.31929 -3.36024,1.31929 -0.75,0 -1.69488,-0.180709 -2.81929,-0.540945 -1.12559,-0.375591 -2.13898,-0.764173 -3.04252,-1.16693 -1.13858,0.791339 -2.20748,1.80591 -3.20787,3.05551 -1.00039,1.24961 -2.20866,2.63858 -3.6248,4.17992 1.98543,3.61181 3.69449,6.73701 5.15197,9.36142 1.44449,2.63976 2.82047,4.98661 4.12559,7.04173 1.27795,1.98661 2.54173,3.45827 3.79134,4.41732 1.23661,0.957874 2.55591,1.44449 3.94488,1.44449 0.540945,0 1.22244,-0.0425197 2.02795,-0.125197 0.818504,-0.0838583 1.3748,-0.13937 1.66654,-0.194882l0 2.59724z"/>
  <path id="12345678910111213141516171819202122232425262728293031323334" class="fil0" d="M712.65 226.013c-0.861024,-0.0826772 -1.86142,-0.124016 -2.98583,-0.124016 -1.12559,0 -1.91693,-0.0141732 -2.3752,-0.0425197 -1.36181,-0.0555118 -2.40354,-0.540945 -3.13937,-1.48583 -0.735827,-0.930709 -1.09724,-1.90276 -1.09724,-2.90315 0,-1.22244 0.472441,-2.3185 1.43031,-3.30472 0.944882,-0.973228 2.30551,-1.45866 4.07008,-1.45866 2.19449,0 4.0689,0.694488 5.61142,2.06929 1.54134,1.38898 2.8748,3.69449 3.98622,6.91654 1.24961,3.58346 2.55472,7.22244 3.90236,10.9311 1.36063,3.70748 2.6811,7.3748 3.94488,11.0138 1.61102,4.47165 3.11102,8.67992 4.5,12.6248 1.40197,3.94488 2.61024,7.1811 3.63898,9.70866 1.08307,2.65276 1.99961,4.40315 2.74961,5.22165 0.75,0.833858 2.04213,1.25079 3.88937,1.25079l1.83307 0 0 2.59724c-1.36181,0.416929 -2.57008,0.764173 -3.65315,1.08307 -1.0689,0.305906 -2.20866,0.472441 -3.42992,0.472441 -1.13976,0 -2.07047,-0.222047 -2.79213,-0.65315 -0.722835,-0.444094 -1.34764,-1.05591 -1.88858,-1.87441 -0.51378,-0.79252 -0.959055,-1.77874 -1.34764,-2.97283 -0.375591,-1.19409 -0.722835,-2.33268 -1.05591,-3.41693 -0.680315,-2.25 -1.51299,-5.36102 -2.49921,-9.33307 -0.98622,-3.98622 -2.27835,-8.59724 -3.84803,-13.8614 -1.8189,3.58346 -3.8752,7.84724 -6.16654,12.7925 -2.29134,4.95827 -4.13858,8.8748 -5.55591,11.7496 -0.694488,1.40315 -1.22126,2.61142 -1.55551,3.61063 -0.347244,1.01457 -0.694488,2.0563 -1.04173,3.13937l-9.27756 0 19.9028 -40.2083c-0.930709,-3.13937 -1.84724,-5.76378 -2.74961,-7.84724 -0.916535,-2.08346 -1.90276,-3.98622 -3,-5.69528z"/>
  <path id="1234567891011121314151617181920212223242526272829303132333435" class="fil0" d="M811.625 278.986c-1.27795,0.472441 -2.45787,0.833858 -3.55512,1.12559 -1.09724,0.277559 -2.26417,0.431102 -3.48661,0.431102 -2.11063,0 -3.86102,-0.500787 -5.25,-1.48701 -1.3748,-0.999213 -2.25,-2.58307 -2.59724,-4.79173l-0.250394 0c-0.666142,0.708661 -1.45748,1.5 -2.33268,2.38937 -0.88937,0.875197 -1.75039,1.55551 -2.58307,2.01378 -1.05591,0.624803 -2.16732,1.09724 -3.33425,1.44449 -1.16575,0.333071 -2.70827,0.51378 -4.59685,0.51378 -1.58386,0 -3.06969,-0.333071 -4.45866,-0.98622 -1.40197,-0.65315 -2.4437,-1.41614 -3.15236,-2.31969l-0.250394 0 0 2.36102c0,1.3063 0.111024,2.55591 0.333071,3.76417 0.209055,1.20827 0.458268,2.45906 0.722835,3.76417 0.277559,1.36063 0.51378,2.50039 0.721654,3.41693 0.194882,0.930709 0.305906,1.90276 0.305906,2.93031 0,1.44449 -0.51378,2.51339 -1.51417,3.22205 -0.999213,0.694488 -2.01378,1.05591 -3.05551,1.05591 -1.13858,0 -2.08346,-0.361417 -2.84646,-1.05591 -0.75,-0.708661 -1.13976,-1.70787 -1.13976,-3.01417 0,-1.41614 0.23622,-3.38858 0.694488,-5.91614 0.458268,-2.54173 0.778346,-4.5 0.944882,-5.88898 0.180709,-1.59685 0.305906,-2.98583 0.374409,-4.15276 0.069685,-1.16693 0.112205,-2.36102 0.112205,-3.56929l0 -34.598 7.72205 0 0 27.5563c0,2.59724 0.70748,4.72205 2.09646,6.36142 1.40315,1.63819 3.13937,2.45787 5.23701,2.45787 1.48583,0 2.83346,-0.207874 4.04173,-0.638976 1.20827,-0.444094 2.18031,-0.944882 2.91614,-1.51417 0.833858,-0.624803 1.52835,-1.26378 2.06929,-1.91693 0.542126,-0.637795 0.916535,-1.16575 1.13858,-1.58268l0 -30.7228 7.73622 0 0 31.9028c0,1.16693 0.167717,2.09764 0.527953,2.76496 0.347244,0.680315 0.930709,1.22126 1.75039,1.63819 0.458268,0.23622 1.16693,0.375591 2.13898,0.402756 0.957874,0.0283465 1.90276,0.0413386 2.81929,0.0413386l0 2.59724z"/>
  <path id="123456789101112131415161718192021222324252627282930313233343536" class="fil0" d="M849.072 239.153l0.569291 0.569291c0.194882,0.957874 0.416929,1.95827 0.681496,3.02717 0.249213,1.08425 0.596457,2.1815 1.04173,3.32008 1.23543,3.30591 2.79094,7.40315 4.65236,12.2776 1.86142,4.86142 3.40276,8.8748 4.6252,12.0142 1.02756,-2.11063 2.01378,-4.15276 2.94449,-6.09685 0.930709,-1.95827 1.73622,-3.6815 2.41654,-5.16732 0.735827,-1.65236 1.26378,-3 1.56969,-4.01339 0.304724,-1.01457 0.47126,-1.9311 0.47126,-2.75079 0,-2.25 -0.138189,-3.97205 -0.388583,-5.18031 -0.263386,-1.20827 -0.388583,-2.50039 -0.388583,-3.88937 0,-1.19409 0.499606,-2.27717 1.48583,-3.24921 0.98622,-0.98622 2.18031,-1.47283 3.5563,-1.47283 1.41614,0 2.51339,0.402756 3.27756,1.1811 0.777165,0.791339 1.16693,1.91693 1.16693,3.37441 0,1.79173 -0.597638,3.80551 -1.77874,6.02835 -1.17992,2.22165 -2.16614,4.12441 -2.94449,5.69409 -1.02756,2.06929 -2.30551,4.51417 -3.80551,7.34764 -1.51299,2.83346 -3.01299,5.70827 -4.54134,8.61142 -0.75,1.43031 -1.40315,2.84646 -1.94409,4.22244 -0.542126,1.3878 -1.1811,3.09685 -1.91693,5.1248l-3.54213 0c-2.27717,-5.86181 -4.36063,-11.3055 -6.24921,-16.3476 -1.87559,-5.05512 -4.11142,-10.7917 -6.69449,-17.2228 -0.542126,-1.3748 -1.38898,-2.34685 -2.55591,-2.90197 -1.16693,-0.556299 -2.57008,-0.875197 -4.19409,-0.959055l0 -2.63858 12.4854 -0.902362z"/>
  <path id="12345678910111213141516171819202122232425262728293031323334353637" class="fil0" d="M67.2354 315.237l0 4.59685 -5.27835 0c-1.92992,0 -3.75,0.180709 -5.45787,0.527953 -1.70787,0.361417 -3.37441,1.01457 -4.99961,1.95827 -1.5,0.903543 -2.72244,2.1248 -3.66732,3.68031 -0.943701,1.56969 -1.43031,3.45945 -1.43031,5.6811 0,3.22205 1.16693,5.6811 3.48661,7.36063 2.3185,1.68071 5.38819,2.52874 9.22205,2.52874l5.88898 0 0 4.26378 -7.97244 0c-4.41732,0 -7.79173,0.930709 -10.1114,2.79094 -2.31969,1.86142 -3.47244,4.77874 -3.47244,8.76496 0,3.26339 0.944882,5.79094 2.84764,7.59685 1.88858,1.80591 4.54134,2.70827 7.9311,2.70827l5.37402 0c3.36142,0 5.90315,0.916535 7.63937,2.76378 1.73622,1.84724 2.61142,4.30512 2.61142,7.40315 0,3.33307 -1.43031,6.37441 -4.29213,9.11102 -2.86063,2.74961 -6.27756,4.11142 -10.2354,4.11142 -2.84764,0 -4.87559,-0.347244 -6.05669,-1.02874 -1.19409,-0.693307 -1.79055,-1.70787 -1.79055,-3.04134 0,-1.08307 0.333071,-1.94409 0.985039,-2.59724 0.667323,-0.651969 1.65354,-0.98622 2.95866,-0.98622 0.764173,0 1.44449,0.153543 2.0563,0.458268 0.61063,0.291732 1.13858,0.638976 1.59685,1.01457 0.444094,0.318898 0.957874,0.75 1.56969,1.26378 0.61063,0.51378 1.19409,0.902362 1.73622,1.17992 0.651969,-0.0555118 1.36063,-0.207874 2.13898,-0.47126 0.762992,-0.264567 1.5,-0.694488 2.20748,-1.32047 0.737008,-0.624803 1.31929,-1.34646 1.75039,-2.18031 0.444094,-0.819685 0.65315,-1.94409 0.65315,-3.36142 0,-1.97126 -0.625984,-3.44409 -1.88976,-4.3878 -1.26378,-0.944882 -3.0685,-1.4315 -5.43071,-1.4315l-6.34724 0c-4.66654,0 -8.49921,-1.41614 -11.472,-4.26378 -2.98583,-2.84646 -4.48583,-6.37441 -4.48583,-10.5827 0,-2.27835 0.458268,-4.36181 1.36063,-6.25039 0.916535,-1.87559 2.13898,-3.52795 3.69449,-4.94409 1.45866,-1.32047 3.13937,-2.3752 5.01378,-3.16772 1.88976,-0.791339 3.70866,-1.29094 5.44488,-1.51299l0 -0.23622c-4.12441,-0.680315 -7.26378,-2.04213 -9.40276,-4.07008 -2.15315,-2.04094 -3.22205,-4.47165 -3.22205,-7.31929 0,-1.61102 0.318898,-3.06969 0.957874,-4.3748 0.638976,-1.31929 1.52835,-2.50039 2.66693,-3.52795 1.05591,-0.944882 2.30551,-1.76339 3.75,-2.44488 1.43031,-0.666142 2.94449,-1.23543 4.51417,-1.70787l0 -0.680315c-1.08307,0.0271654 -2.50039,0.069685 -4.23661,0.152362 -1.73622,0.0838583 -3.22205,0.125197 -4.47165,0.125197 -2.55591,0 -4.43031,-0.361417 -5.63858,-1.08307 -1.20945,-0.708661 -1.80591,-1.73622 -1.80591,-3.06969 0,-1.05591 0.277559,-1.97244 0.832677,-2.73661 0.556299,-0.777165 1.5,-1.16575 2.81929,-1.16575 1.25079,0 2.31969,0.249213 3.19488,0.735827 0.88937,0.485433 1.70906,1.01339 2.47205,1.58268 0.861024,0.65315 1.6252,1.19528 2.27835,1.65354 0.65315,0.444094 1.63819,0.666142 2.97165,0.666142 2.91732,0 6.08386,-0.0826772 9.50079,-0.249213 3.40276,-0.153543 6.41693,-0.320079 9.04134,-0.486614z"/>
  <path id="1234567891011121314151617181920212223242526272829303132333435363738" class="fil0" d="M136.478 353.974c0,2.81929 -0.445276,5.59724 -1.33346,8.31969 -0.903543,2.73543 -2.18031,5.04094 -3.83386,6.9437 -1.86024,2.16732 -4.04173,3.77835 -6.49961,4.84724 -2.47205,1.05591 -5.23583,1.58386 -8.30551,1.58386 -2.55591,0 -4.98661,-0.486614 -7.29213,-1.44449 -2.30551,-0.959055 -4.34646,-2.3752 -6.13819,-4.20827 -1.76457,-1.82008 -3.16772,-4.04173 -4.20945,-6.65315 -1.04055,-2.62441 -1.5685,-5.55591 -1.5685,-8.81929 0,-6.26457 1.8189,-11.3894 5.47205,-15.3756 3.65315,-3.98622 8.43071,-5.98583 14.3469,-5.98583 5.61142,0 10.2508,1.90276 13.8898,5.6811 3.65197,3.77717 5.47205,8.81929 5.47205,15.111zm-8.41654 0.0826772c0,-2.02795 -0.209055,-4.17992 -0.611811,-6.44409 -0.402756,-2.26417 -1.01339,-4.1811 -1.83307,-5.76378 -0.861024,-1.68071 -1.99961,-3.02835 -3.41693,-4.04173 -1.41614,-1.01457 -3.13819,-1.52835 -5.16614,-1.52835 -2.08346,0 -3.8752,0.51378 -5.34803,1.54252 -1.48583,1.02756 -2.67992,2.4437 -3.61063,4.23543 -0.861024,1.65354 -1.47283,3.54213 -1.82008,5.65276 -0.360236,2.1248 -0.526772,4.16693 -0.526772,6.15354 0,2.59724 0.207874,4.99961 0.624803,7.22244 0.416929,2.20748 1.09724,4.17992 2.01378,5.91614 0.916535,1.73622 2.08346,3.09685 3.47244,4.08307 1.40197,1.00039 3.13819,1.48583 5.19449,1.48583 3.38858,0 6.06969,-1.63819 8.05512,-4.91575 1.98661,-3.29173 2.97283,-7.82008 2.97283,-13.598z"/>
  <path id="123456789101112131415161718192021222324252627282930313233343536373839" class="fil0" d="M176.983 367.32c1.33346,-2.73543 2.38937,-6.0685 3.18071,-9.99921 0.777165,-3.94488 1.17992,-8.09764 1.17992,-12.5008 0,-0.805512 -0.0129921,-1.74921 -0.0413386,-2.80512 -0.0271654,-1.05591 -0.069685,-1.95827 -0.125197,-2.6811l-2.52756 0c-1.43031,0 -2.58307,0.23622 -3.45827,0.722835 -0.861024,0.499606 -1.58386,1.12441 -2.15315,1.91693 -0.458268,0.624803 -0.819685,1.43031 -1.08307,2.40236 -0.250394,0.972047 -0.431102,2.02795 -0.542126,3.16654l-2.5689 0c-0.0838583,-0.75 -0.152362,-1.5 -0.207874,-2.25 -0.0425197,-0.75 -0.069685,-1.59685 -0.069685,-2.54173 0,-0.930709 0.166535,-1.84724 0.527953,-2.76378 0.347244,-0.930709 0.929528,-1.83307 1.74921,-2.73543 0.694488,-0.806693 1.66654,-1.50118 2.88898,-2.0563 1.22244,-0.555118 2.57008,-0.832677 4.07008,-0.832677l34.8614 0 0 4.97126 -9.15354 0 0 26.6114c0,1.6252 0.51378,2.91732 1.52835,3.8752 1.01339,0.972047 2.47205,1.44449 4.3748,1.44449 0.374409,0 0.833858,0 1.36063,-0.0271654 0.527953,-0.0283465 1.00039,-0.0555118 1.40315,-0.0838583l0 2.59724c-1.27795,0.431102 -2.54173,0.805512 -3.81969,1.09724 -1.27795,0.305906 -2.86063,0.458268 -4.76339,0.458268 -2.57008,0 -4.51417,-0.791339 -5.79213,-2.36102 -1.29094,-1.58386 -1.94409,-3.72283 -1.94409,-6.4311l0 -27.1807 -10.6949 0c0.0283465,0.694488 0.0555118,1.55551 0.0838583,2.58425 0.0271654,1.01339 0.0413386,2.11063 0.0413386,3.27756 0,3.36142 -0.305906,7.02756 -0.916535,11.0138 -0.611811,4.00039 -1.51417,7.43031 -2.70827,10.3051 -1.16693,2.82047 -2.50039,5.00079 -3.98622,6.52795 -1.5,1.52835 -3.23622,2.29252 -5.20866,2.29252 -1.6252,0 -2.81929,-0.51378 -3.58346,-1.55551 -0.764173,-1.05591 -1.13858,-2.13898 -1.13858,-3.27874 0,-0.98622 0.361417,-1.92992 1.08307,-2.8748 0.708661,-0.930709 1.77756,-1.40315 3.19488,-1.40315 0.861024,0 1.76339,0.13937 2.69409,0.431102 0.944882,0.277559 1.69488,0.51378 2.26417,0.666142z"/>
  <path id="12345678910111213141516171819202122232425262728293031323334353637383940" class="fil0" d="M278.683 338.598c1.65354,1.79173 2.93031,3.93071 3.84803,6.40276 0.902362,2.48622 1.36063,5.44488 1.36063,8.88898 0,3.04134 -0.51378,5.91732 -1.54134,8.63858 -1.04173,2.70945 -2.44488,5.02795 -4.23661,6.95906 -1.79173,1.91693 -3.79134,3.40276 -6,4.44449 -2.20866,1.05591 -4.58386,1.56969 -7.09724,1.56969 -2.33386,0 -4.34764,-0.277559 -6.02835,-0.848031 -1.67953,-0.569291 -3,-1.19409 -3.9437,-1.87441l-0.333071 0 0 19.7362 -7.6122 0 0 -40.3335c0,-3.05551 0.347244,-5.61142 1.02874,-7.66654 0.680315,-2.04213 1.92992,-4.07008 3.77717,-6.08386 1.59803,-1.73622 3.5563,-3.04134 5.84764,-3.90236 2.29134,-0.875197 4.95827,-1.3063 8.02795,-1.3063 2.61142,0 5.01378,0.458268 7.20827,1.36181 2.19449,0.916535 4.09724,2.25 5.69409,4.01339zm-3.22205 15.222c0,-3.88819 -0.318898,-6.95787 -0.98622,-9.22205 -0.666142,-2.26417 -1.52717,-4.01339 -2.58307,-5.26417 -1.04173,-1.22126 -2.15315,-2.02677 -3.36142,-2.40236 -1.20827,-0.388583 -2.3752,-0.569291 -3.51378,-0.569291 -1.30512,0 -2.51339,0.180709 -3.61063,0.569291 -1.09724,0.375591 -2.09764,1.01339 -2.98701,1.91693 -1.24961,1.23543 -2.15197,2.73543 -2.70827,4.47165 -0.555118,1.73622 -0.875197,4.26378 -0.957874,7.61102 -0.0283465,1.48701 -0.0555118,2.8063 -0.0838583,3.94488 -0.0271654,1.13858 -0.0413386,2.26417 -0.0413386,3.37559 0,1.48583 0.0141732,2.79094 0.0413386,3.90236 0.0283465,1.11142 0.0425197,2.3752 0.0425197,3.79134 0.51378,1.65354 1.66654,3.16654 3.44409,4.52835 1.77756,1.3748 3.86102,2.05512 6.25039,2.05512 3.16654,0 5.80512,-1.65236 7.90276,-4.95827 2.11063,-3.30591 3.15236,-7.88858 3.15236,-13.7504z"/>
  <path id="1234567891011121314151617181920212223242526272829303132333435363738394041" class="fil0" d="M348.287 377.335c0,3.79134 -1.45866,7.02756 -4.3748,9.68031 -2.91732,2.66693 -6.47244,3.98622 -10.6807,3.98622 -2.98583,0 -5.1248,-0.388583 -6.40276,-1.17992 -1.29213,-0.778346 -1.94409,-1.79173 -1.94409,-3.04252 0,-1.08307 0.318898,-1.92992 0.943701,-2.54173 0.624803,-0.61063 1.61102,-0.916535 2.97283,-0.916535 0.75,0 1.44449,0.125197 2.05512,0.402756 0.611811,0.264567 1.22244,0.638976 1.84724,1.09724 0.486614,0.347244 1.05591,0.79252 1.69488,1.3063 0.624803,0.51378 1.23543,0.916535 1.80472,1.22126 1.84724,-0.111024 3.51496,-0.902362 5.00079,-2.36102 1.5,-1.47165 2.23583,-3.26339 2.23583,-5.3752 0,-1.40197 -0.429921,-2.55472 -1.31929,-3.42992 -0.875197,-0.88937 -2.06929,-1.5 -3.55512,-1.86142 -1.52835,-0.347244 -3.06969,-0.596457 -4.66772,-0.75 -1.58268,-0.152362 -3.48543,-0.583465 -5.70827,-1.27795 -4.04173,-1.27795 -7.22126,-3.51378 -9.54094,-6.72165 -2.31969,-3.19488 -3.48661,-6.90354 -3.48661,-11.0976 0,-3.66614 0.583465,-6.83386 1.75039,-9.51378 1.16693,-2.66693 2.69409,-4.90276 4.55551,-6.69449 1.73622,-1.65236 3.73583,-2.90315 5.98583,-3.77835 2.25,-0.861024 4.43031,-1.30512 6.5563,-1.30512 4.16575,0 7.58268,0.875197 10.2213,2.61142 2.65276,1.73622 3.97323,4.01339 3.97323,6.83268 0,1.3063 -0.291732,2.45906 -0.88937,3.47244 -0.597638,1.02756 -1.63937,1.52835 -3.13937,1.52835 -1.59685,0 -2.83346,-0.389764 -3.68031,-1.15276 -0.861024,-0.778346 -1.27795,-1.65354 -1.27795,-2.62559 0,-0.999213 0.0980315,-1.97244 0.277559,-2.88898 0.194882,-0.930709 0.375591,-1.88858 0.527953,-2.88898 -0.569291,-0.458268 -1.34646,-0.875197 -2.36102,-1.24961 -0.999213,-0.361417 -2.22165,-0.542126 -3.65197,-0.542126 -1.08425,0 -2.27835,0.264567 -3.58346,0.79252 -1.3063,0.526772 -2.54173,1.43031 -3.70866,2.70827 -1.11142,1.19409 -2.04213,2.84646 -2.77795,4.95827 -0.75,2.1248 -1.12441,4.6937 -1.12441,7.73622 0,3.69449 0.805512,6.65197 2.41654,8.88898 1.62402,2.23583 3.95787,3.77717 7.02756,4.6252 1.51417,0.402756 2.95866,0.680315 4.33346,0.84685 1.36063,0.166535 2.76378,0.416929 4.20827,0.777165 2.52756,0.625984 4.40315,1.79173 5.63858,3.50079 1.23661,1.70787 1.84724,3.77717 1.84724,6.22205z"/>
  <path id="123456789101112131415161718192021222324252627282930313233343536373839404142" class="fil0" d="M405.973 367.127c0.944882,-1.82008 1.6252,-3.76417 2.05512,-5.81929 0.416929,-2.06929 0.625984,-4.4315 0.625984,-7.08425 0,-2.08228 -0.194882,-4.26378 -0.597638,-6.52677 -0.388583,-2.26417 -0.972047,-4.15394 -1.76339,-5.63976 -0.88937,-1.65236 -2.01496,-2.94449 -3.37559,-3.88819 -1.36063,-0.930709 -3.1252,-1.40315 -5.29134,-1.40315 -2.19449,0 -4.02874,0.527953 -5.47323,1.56969 -1.45748,1.04173 -2.61024,2.38819 -3.48543,4.04173 -0.805512,1.52717 -1.40315,3.29173 -1.77756,5.31969 -0.389764,2.01378 -0.569291,4.12441 -0.569291,6.3189 0,2.38937 0.207874,4.72205 0.624803,6.98622 0.416929,2.26417 1.09724,4.26378 2.01378,6 0.916535,1.73622 2.08346,3.09685 3.47244,4.08307 1.40197,1.00039 3.13819,1.48583 5.19449,1.48583 1.87441,0 3.51378,-0.485433 4.91575,-1.48583 1.41732,-0.98622 2.55591,-2.30551 3.4311,-3.95787zm-0.125197 -32.7638l16.0701 0 0 4.97126 -11.6398 0 0 0.194882c2.22283,1.84724 3.91772,4.04173 5.07047,6.56929 1.15276,2.54173 1.72205,5.34803 1.72205,8.40354 0,2.74961 -0.431102,5.40236 -1.31929,7.98543 -0.875197,2.57008 -2.16732,4.82008 -3.84803,6.75 -1.73622,1.98661 -3.80551,3.54213 -6.22205,4.69488 -2.41654,1.15276 -5.27717,1.73622 -8.58307,1.73622 -2.55591,0 -4.98661,-0.486614 -7.29213,-1.44449 -2.30551,-0.959055 -4.34646,-2.3752 -6.13819,-4.20827 -1.76457,-1.82008 -3.16772,-4.04173 -4.20945,-6.65315 -1.04055,-2.62441 -1.5685,-5.55591 -1.5685,-8.81929 0,-3.25039 0.458268,-6.13937 1.38898,-8.6811 0.916535,-2.54173 2.25,-4.77756 3.98622,-6.73583 1.67953,-1.84724 3.76299,-3.29173 6.26339,-4.34764 2.50039,-1.0689 5.22165,-1.59685 8.18031,-1.59685 1.54252,0 2.91732,0.0968504 4.12559,0.291732 1.20827,0.180709 2.54173,0.486614 4.01339,0.88937z"/>
  <path id="12345678910111213141516171819202122232425262728293031323334353637383940414243" class="fil0" d="M485.021 339.334l-13.8059 0 0 21.5563c0,1.68071 0.0283465,3.09685 0.0838583,4.23543 0.0555118,1.13976 0.291732,2.11181 0.694488,2.9315 0.374409,0.819685 0.944882,1.41614 1.69488,1.80472 0.735827,0.402756 1.90276,0.597638 3.47126,0.597638 0.737008,0 1.68071,-0.069685 2.84764,-0.222047 1.16693,-0.152362 2.01378,-0.320079 2.52756,-0.51378l0 2.97165c-1.76339,0.737008 -3.36024,1.34764 -4.80472,1.84724 -1.4315,0.500787 -3.29173,0.764173 -5.57008,0.764173 -3.18071,0 -5.40236,-0.84685 -6.68031,-2.52756 -1.27795,-1.68071 -1.90276,-4.08307 -1.90276,-7.20827l0 -26.237 -3.66732 0c-1.44449,0 -2.59724,0.23622 -3.45827,0.722835 -0.875197,0.499606 -1.58268,1.11142 -2.15197,1.87441 -0.472441,0.681496 -0.819685,1.48701 -1.08425,2.41772 -0.263386,0.943701 -0.444094,2.01378 -0.555118,3.1937l-2.55591 0c-0.0555118,-0.61063 -0.111024,-1.38898 -0.180709,-2.29134 -0.0685039,-0.902362 -0.111024,-1.75039 -0.111024,-2.50039 0,-0.957874 0.180709,-1.90276 0.527953,-2.84646 0.361417,-0.959055 0.944882,-1.86142 1.75039,-2.73661 0.735827,-0.805512 1.6937,-1.48583 2.8748,-2.01378 1.1811,-0.527953 2.54173,-0.791339 4.08307,-0.791339l25.9724 0 0 4.97126z"/>
  <path id="1234567891011121314151617181920212223242526272829303132333435363738394041424344" class="fil0" d="M548.068 367.571c-1.66654,2.52756 -3.61063,4.48583 -5.86063,5.90315 -2.25,1.40315 -4.97244,2.11063 -8.13898,2.11063 -1.87559,0 -3.69449,-0.263386 -5.47205,-0.777165 -1.77874,-0.51378 -3.34724,-1.31929 -4.70906,-2.43071 -1.43031,-1.19409 -2.52756,-2.59724 -3.29173,-4.22244 -0.764173,-1.61102 -1.13858,-3.73583 -1.13858,-6.36142l0.125197 -19.0004c0,-1.41614 -0.291732,-2.49921 -0.875197,-3.27756 -0.583465,-0.777165 -1.63937,-1.16693 -3.15236,-1.16693 -0.65315,0 -1.37598,0.0566929 -2.1815,0.153543 -0.805512,0.0826772 -1.38898,0.152362 -1.76339,0.180709l0 -2.61142c0.972047,-0.402756 2.30551,-0.88937 4.00039,-1.44449 1.6937,-0.555118 3.11102,-0.833858 4.24961,-0.833858 2.76378,0 4.72205,0.737008 5.86063,2.19449 1.13976,1.47283 1.69488,3.8622 1.66772,7.16693l-0.125197 16.9724c-0.0425197,2.65276 0.23622,4.69488 0.861024,6.09685 0.624803,1.41732 1.3748,2.47323 2.23583,3.18071 0.819685,0.681496 1.75039,1.11142 2.80512,1.29213 1.05591,0.194882 2.07047,0.291732 3.01417,0.291732 3.63898,0 6.61181,-1.63937 8.91732,-4.90276 2.30551,-3.26457 3.45827,-7.43031 3.45827,-12.4724 0,-2.16614 -0.305906,-4.01339 -0.903543,-5.51339 -0.596457,-1.5 -1.61102,-2.84764 -3.05551,-4.01457 -1.05472,-0.861024 -1.95827,-1.8189 -2.72126,-2.88898 -0.75,-1.05591 -1.13976,-2.27717 -1.13976,-3.65315 0,-1.05472 0.431102,-1.98543 1.27795,-2.76378 0.861024,-0.791339 1.94409,-1.17992 3.23622,-1.17992 1.58386,0 2.8748,0.485433 3.91654,1.48583 1.02756,0.98622 1.79173,2.19449 2.31969,3.63898 0.51378,1.45866 0.875197,3.01417 1.09724,4.63937 0.207874,1.62402 0.318898,3.38858 0.318898,5.29134 0,3.49961 -0.415748,6.93071 -1.23543,10.3051 -0.833858,3.37559 -2.02795,6.25039 -3.59764,8.61142z"/>
  <path id="123456789101112131415161718192021222324252627282930313233343536373839404142434445" class="fil0" d="M630.964 337.988c1.79173,1.6252 3.24921,3.65197 4.3748,6.08268 1.12441,2.43071 1.69488,5.43071 1.69488,9.01417 0,3.5563 -0.65315,6.73583 -1.9311,9.54213 -1.29213,2.80512 -3,5.13898 -5.11063,6.97205 -2.08346,1.87559 -4.48701,3.33307 -7.1811,4.36063 -2.70827,1.02874 -5.43071,1.58386 -8.20866,1.66772l0 16.8886 -7.55551 0 0 -16.8886c-6.81969,-0.305906 -12.2362,-2.3622 -16.2638,-6.20906 -4.02756,-3.83268 -6.04134,-8.79213 -6.04134,-14.8748 0,-5.38937 1.43031,-9.90354 4.29094,-13.5413 2.86181,-3.63898 7.16693,-6.15354 12.9165,-7.52835l0.611811 3.29173c-3.05551,1.08307 -5.3752,3.05551 -6.95906,5.91614 -1.5685,2.86181 -2.36102,6.81969 -2.36102,11.8618 0,5.31969 1.25079,9.61063 3.72283,12.8894 2.48622,3.26339 5.84764,4.95827 10.0831,5.05512l0 -29.5004c0,-1.73622 0.347244,-3.22205 1.05591,-4.47165 0.708661,-1.25079 1.63819,-2.27835 2.80512,-3.09803 1.02756,-0.721654 2.31969,-1.27795 3.86102,-1.63819 1.55551,-0.375591 2.97283,-0.556299 4.27795,-0.556299 2.0563,0 4.13858,0.402756 6.25039,1.20827 2.09764,0.79252 3.98622,1.98661 5.66693,3.5563zm-2.44488 14.7638c0,-5.09764 -0.875197,-9.09685 -2.62441,-12.0142 -1.75039,-2.91614 -3.94488,-4.3748 -6.61181,-4.3748 -1.29094,0 -2.40236,0.429921 -3.30591,1.27795 -0.916535,0.861024 -1.3748,2.01378 -1.3748,3.48543l0 31.3618c4.6252,-0.320079 8.09764,-2.27835 10.4173,-5.86181 2.33268,-3.56929 3.49961,-8.19449 3.49961,-13.8744z"/>
  <path id="12345678910111213141516171819202122232425262728293031323334353637383940414243444546" class="fil0" d="M690.317 363.987c1.97244,4.1811 3.70866,7.72205 5.18031,10.6252 1.48583,2.90315 2.79213,5.30551 3.93071,7.19409 1.70787,2.84764 3.08268,4.65354 4.13858,5.41772 1.04173,0.762992 2.44488,1.13858 4.20827,1.13858l2.27835 0 0 2.59724c-1.3063,0.416929 -2.59724,0.777165 -3.8752,1.08307 -1.26378,0.320079 -2.51457,0.472441 -3.73583,0.472441 -1.11142,0 -2.06929,-0.207874 -2.87598,-0.638976 -0.791339,-0.416929 -1.51299,-1.02756 -2.16614,-1.84724 -0.624803,-0.791339 -1.20827,-1.73622 -1.75039,-2.84764 -0.540945,-1.11024 -1.08307,-2.30551 -1.62402,-3.58346 -0.875197,-2.02677 -1.79173,-4.29094 -2.75079,-6.77717 -0.972047,-2.47205 -2.09764,-5.33386 -3.40276,-8.55591 -1.6252,2.98583 -3.37441,6.23622 -5.25,9.77835 -1.87441,3.54094 -3.20787,6.09685 -4.02756,7.68071 -0.680315,1.29094 -1.27795,2.48504 -1.80591,3.56929 -0.527953,1.08307 -1.01339,2.16614 -1.44449,3.22205l-9.15236 0 17.8193 -30.9307c-2.52756,-5.18031 -4.48583,-9.08386 -5.90315,-11.6953 -1.41614,-2.62441 -2.72244,-4.91575 -3.9437,-6.90236 -1.19528,-1.97244 -2.45906,-3.26339 -3.80551,-3.8752 -1.34764,-0.61063 -3.06969,-0.916535 -5.19449,-0.916535l0 -2.61142c0.957874,-0.318898 2.22165,-0.70748 3.80551,-1.15276 1.59685,-0.458268 2.83346,-0.680315 3.72165,-0.680315 1.11142,0 2.06929,0.23622 2.8748,0.694488 0.805512,0.458268 1.47283,1.07008 2.01378,1.83307 0.542126,0.79252 1.04173,1.68071 1.48701,2.6811 0.444094,1.01339 0.957874,2.23583 1.52717,3.70866 0.972047,2.49921 1.73622,4.47165 2.29252,5.94449 0.555118,1.45748 1.73504,4.38898 3.52677,8.77795 1.40315,-2.59724 2.98701,-5.61142 4.73622,-9.02835 1.75039,-3.41693 3,-5.83346 3.76417,-7.23661 0.542126,-0.98622 1.09724,-2.04094 1.66654,-3.18071 0.569291,-1.13858 1.11142,-2.34685 1.6252,-3.6248l9.15236 0 -17.0409 29.6669z"/>
  <path id="1234567891011121314151617181920212223242526272829303132333435363738394041424344454647" class="fil0" d="M790.434 346.904c0,3.51378 -0.388583,6.91654 -1.16693,10.1811 -0.764173,3.27756 -2.01378,6.1937 -3.72165,8.77795 -1.73622,2.59724 -3.93071,4.76339 -6.61181,6.48543 -2.66693,1.72205 -5.94449,2.8063 -9.81969,3.23622l0 16.9311 -7.56969 0 0 -16.9311c-1.8189,-0.0826772 -3.88819,-0.333071 -6.22205,-0.75 -2.33268,-0.416929 -4.59685,-1.24961 -6.76417,-2.45787 -2.33268,-1.36181 -4.15276,-3.1252 -5.4437,-5.27835 -1.3063,-2.15197 -1.95827,-4.8189 -1.95827,-7.99961l0.125197 -16.3063c0,-1.47165 -0.27874,-2.5689 -0.833858,-3.3189 -0.555118,-0.75 -1.6252,-1.12559 -3.19488,-1.12559 -0.651969,0 -1.3748,0.0566929 -2.18031,0.153543 -0.805512,0.0826772 -1.38898,0.152362 -1.76339,0.180709l0 -2.61142c0.972047,-0.402756 2.30551,-0.88937 3.99921,-1.44449 1.69488,-0.555118 3.11102,-0.833858 4.25079,-0.833858 2.63858,0 4.55551,0.694488 5.76378,2.08346 1.20827,1.37598 1.79173,3.80551 1.76339,7.27795l-0.111024 16.3618c-0.0271654,2.27717 0.375591,4.27795 1.23661,6.01417 0.84685,1.73504 2.1248,3.16654 3.80551,4.27677 1.30512,0.848031 2.65276,1.44449 4.0689,1.80591 1.40315,0.375591 2.55591,0.569291 3.45827,0.597638l0 -37.8898 7.56969 0 0 37.8898c2.6811,-0.222047 5.0563,-0.903543 7.11142,-2.0563 2.06929,-1.15276 3.79134,-2.62441 5.16614,-4.41614 1.41732,-1.84724 2.47323,-3.84685 3.18071,-6.02835 0.708661,-2.16614 1.05591,-4.47165 1.05591,-6.91654 0,-1.99961 -0.263386,-3.73583 -0.791339,-5.18031 -0.527953,-1.45866 -1.43031,-2.69409 -2.70827,-3.72283 -1.02756,-0.84685 -1.86142,-1.70787 -2.50039,-2.58307 -0.638976,-0.888189 -0.957874,-1.92992 -0.957874,-3.15236 0,-1.52835 0.429921,-2.66693 1.30512,-3.41693 0.861024,-0.764173 1.97244,-1.13858 3.29173,-1.13858 1.44449,0 2.62559,0.402756 3.56929,1.20827 0.930709,0.819685 1.65236,1.86142 2.16732,3.13819 0.540945,1.3063 0.916535,2.72244 1.12441,4.25079 0.207874,1.54134 0.305906,3.09685 0.305906,4.70787z"/>
  <path id="123456789101112131415161718192021222324252627282930313233343536373839404142434445464748" class="fil0" d="M857.383 333.835c2.36102,0.193701 4.65354,0.75 6.88937,1.66654 2.22165,0.930709 4.17992,2.20866 5.88898,3.8752 1.73622,1.68071 3.15236,3.8185 4.23543,6.41575 1.08425,2.61142 1.6252,5.70945 1.6252,9.27874 0,2.90197 -0.374409,5.62441 -1.13858,8.16614 -0.764173,2.52756 -1.83307,4.70906 -3.20787,6.52795 -1.41732,1.90276 -3.05551,3.36142 -4.94528,4.3748 -1.88858,1.01457 -4.05472,1.52835 -6.49961,1.52835 -2.34685,0 -4.45866,-0.597638 -6.30591,-1.79173 -1.83307,-1.19409 -3.41693,-2.86181 -4.70787,-4.99961 -1.36181,2.16614 -2.93031,3.83268 -4.70906,5.01378 -1.77756,1.17992 -3.88819,1.77756 -6.3189,1.77756 -2.36102,0 -4.51417,-0.527953 -6.45827,-1.56969 -1.9311,-1.04173 -3.59764,-2.48622 -4.98661,-4.33346 -1.3748,-1.8189 -2.4437,-4.00039 -3.20787,-6.52795 -0.764173,-2.54173 -1.13976,-5.26417 -1.13976,-8.16614 0,-3.54213 0.527953,-6.59764 1.58386,-9.15354 1.05591,-2.54173 2.48622,-4.72205 4.27795,-6.49961 1.76339,-1.72205 3.75,-3.01417 5.95866,-3.91654 2.20748,-0.88937 4.48583,-1.44449 6.81969,-1.66654l0.61063 3.26339c-1.95827,0.23622 -3.6248,0.88937 -5.01378,1.9311 -1.3748,1.04173 -2.50039,2.3752 -3.37559,3.99921 -0.805512,1.55551 -1.43031,3.54213 -1.84724,5.95866 -0.415748,2.43071 -0.638976,4.91693 -0.638976,7.47283 0,2.06929 0.153543,4.02756 0.431102,5.90197 0.291732,1.87559 0.721654,3.5563 1.31929,5.04213 0.624803,1.5 1.45866,2.69409 2.48622,3.58346 1.02756,0.88937 2.26417,1.34764 3.70866,1.34764 2.22165,0 3.88819,-0.722835 4.99961,-2.13898 1.11142,-1.4315 1.66654,-3.90354 1.66654,-7.4315l0 -15.013 7.65354 0 0 15.013c0,3.44528 0.540945,5.90315 1.65236,7.36181 1.09724,1.47165 2.76378,2.20866 5.01378,2.20866 1.47283,0 2.72244,-0.458268 3.75,-1.36181 1.02756,-0.916535 1.84724,-2.09646 2.44488,-3.56929 0.651969,-1.59685 1.09724,-3.29173 1.36063,-5.06929 0.250394,-1.77756 0.388583,-3.73583 0.388583,-5.8748 0,-2.73661 -0.193701,-5.25 -0.596457,-7.52835 -0.389764,-2.27717 -1.02756,-4.24961 -1.88976,-5.90315 -0.916535,-1.73622 -2.04094,-3.08268 -3.36024,-4.04173 -1.3063,-0.972047 -2.98701,-1.59685 -5.02795,-1.88858l0.61063 -3.26339z"/>
 </g>
</svg>
